<svg width="28" height="28" viewBox="0 0 28 28" fill="none" xmlns="http://www.w3.org/2000/svg">
<mask id="path-1-outside-1" maskUnits="userSpaceOnUse" x="0" y="0" width="28" height="28" fill="black">
<rect fill="white" width="28" height="28"/>
<path d="M9.82016 9.10465L8.57239 9.0404C7.98301 9.01091 7.39399 9.10527 6.84333 9.3174C6.29266 9.52952 5.79258 9.85471 5.37533 10.272L3.28948 12.3442C3.17255 12.4635 3.08677 12.6096 3.03971 12.7698C2.99264 12.9301 2.98574 13.0994 3.01961 13.2629C3.05348 13.4264 3.12708 13.5791 3.23392 13.7074C3.34075 13.8358 3.47754 13.9359 3.63221 13.9988L6.5026 15.1956C6.28826 15.8458 6.10949 16.5072 5.96708 17.1768C5.93844 17.3083 5.94328 17.4449 5.98118 17.574C6.01908 17.7031 6.08881 17.8206 6.18397 17.9158L10.0933 21.8247C10.1884 21.9199 10.306 21.9896 10.4351 22.0275C10.5642 22.0654 10.7008 22.0702 10.8323 22.0416C11.502 21.8994 12.1635 21.7206 12.8137 21.5061L13.9999 24.3655C14.0629 24.5202 14.163 24.6569 14.2913 24.7638C14.4197 24.8706 14.5724 24.9442 14.7359 24.978C14.8994 25.0119 15.0688 25.005 15.229 24.9579C15.3892 24.9109 15.5354 24.8251 15.6547 24.7082L17.7271 22.6359C18.1438 22.2184 18.4684 21.7182 18.6801 21.1677C18.8918 20.6171 18.9858 20.0283 18.9561 19.4392L18.8919 18.1915C23.4251 14.5664 26.1509 9.23049 26.9916 2.30688C27.0128 2.13128 26.9937 1.95316 26.936 1.78599C26.8782 1.61882 26.7831 1.46697 26.6581 1.3419C26.533 1.21683 26.3811 1.12182 26.2139 1.06404C26.0467 1.00626 25.8686 0.987226 25.693 1.00837C18.7687 1.85174 13.4322 4.57459 9.82016 9.10465ZM25.3262 2.67903C24.4399 9.04843 21.8453 13.9239 17.5852 17.1661C17.4812 17.2452 17.398 17.3485 17.343 17.467C17.2879 17.5855 17.2626 17.7157 17.2692 17.8462L17.3549 19.5088C17.3737 19.8751 17.3152 20.2413 17.1833 20.5835C17.0514 20.9258 16.8489 21.2365 16.5891 21.4954L15.1406 22.9438L13.9999 20.1728C13.9196 19.9799 13.7674 19.8259 13.5754 19.7434C13.3834 19.6609 13.1669 19.6565 12.9717 19.731C12.2973 19.988 11.6079 20.2034 10.9073 20.3763L7.62184 17.0938C7.79479 16.3933 8.01029 15.7039 8.26714 15.0296C8.3425 14.8341 8.33847 14.6169 8.25594 14.4244C8.1734 14.2318 8.01888 14.0791 7.82534 13.9988L5.06205 12.8583L6.5026 11.4098C6.76138 11.1515 7.07135 10.9502 7.41259 10.8187C7.75384 10.6873 8.1188 10.6288 8.48403 10.6468L10.1468 10.7325C10.2773 10.7391 10.4075 10.7138 10.526 10.6587C10.6445 10.6037 10.7478 10.5206 10.8269 10.4165C14.0802 6.16493 18.9535 3.5572 25.3235 2.67636L25.3262 2.67903ZM18.8678 12.0497C19.5443 12.0493 20.1998 11.8143 20.7224 11.3848C21.2451 10.9553 21.6026 10.3579 21.7341 9.69433C21.8656 9.03077 21.7629 8.34215 21.4435 7.74582C21.1242 7.14948 20.6078 6.68235 19.9826 6.42401C19.3573 6.16567 18.6618 6.13212 18.0146 6.32908C17.3674 6.52604 16.8085 6.94131 16.4332 7.50414C16.0579 8.06696 15.8894 8.7425 15.9564 9.41564C16.0234 10.0888 16.3218 10.7178 16.8007 11.1957C17.0711 11.4682 17.3926 11.6846 17.7469 11.8326C18.1012 11.9805 18.4812 12.057 18.8651 12.0578L18.8678 12.0497ZM17.936 8.19436C18.1208 8.01173 18.3556 7.88786 18.6107 7.83833C18.8658 7.7888 19.1299 7.81581 19.3697 7.91598C19.6094 8.01614 19.8143 8.18499 19.9583 8.40126C20.1024 8.61754 20.1792 8.87158 20.1792 9.13143C20.1792 9.39127 20.1024 9.64532 19.9583 9.86159C19.8143 10.0779 19.6094 10.2467 19.3697 10.3469C19.1299 10.447 18.8658 10.4741 18.6107 10.4245C18.3556 10.375 18.1208 10.2511 17.936 10.0685C17.8127 9.94648 17.7147 9.80126 17.6478 9.64122C17.5809 9.48117 17.5463 9.30947 17.546 9.136C17.5458 8.96253 17.5799 8.79073 17.6463 8.63049C17.7128 8.47026 17.8103 8.32476 17.9333 8.20239L17.936 8.19436ZM2.00155 27H2.01762C6.41692 26.9224 8.57775 24.5904 9.30338 23.5784C9.41481 23.4229 9.47588 23.2371 9.47832 23.0459C9.48076 22.8546 9.42446 22.6673 9.31703 22.5091C9.2096 22.3508 9.0562 22.2294 8.87755 22.1611C8.6989 22.0928 8.5036 22.081 8.31802 22.1272C7.78864 22.2642 7.23839 22.3014 6.69539 22.237C6.45755 22.2082 6.23624 22.1005 6.06684 21.9311C5.89743 21.7617 5.78971 21.5404 5.76091 21.3026C5.69646 20.7597 5.73369 20.2095 5.87069 19.6802C5.91692 19.4946 5.9051 19.2993 5.83681 19.1207C5.76853 18.942 5.64707 18.7887 5.48884 18.6812C5.33061 18.5738 5.14323 18.5175 4.95199 18.52C4.76075 18.5224 4.57486 18.5835 4.41943 18.6949C3.418 19.4178 1.0751 21.5811 1.00013 25.9773C0.998 26.1106 1.02238 26.243 1.07185 26.3668C1.12133 26.4906 1.19491 26.6034 1.28833 26.6985C1.38174 26.7937 1.49313 26.8693 1.61603 26.9211C1.73893 26.9728 1.87088 26.9997 2.00423 27H2.00155ZM4.14363 21.2009C4.14363 21.299 4.15256 21.3963 4.17041 21.4927C4.24197 22.0869 4.51055 22.64 4.93329 23.0636C5.35603 23.4873 5.90854 23.7571 6.5026 23.83L6.79446 23.8568C5.58521 24.7539 4.13953 25.2771 2.63614 25.3615C2.71927 23.8576 3.24152 22.4111 4.13828 21.2009H4.14363Z"/>
</mask>
<path d="M9.82016 9.10465L8.57239 9.0404C7.98301 9.01091 7.39399 9.10527 6.84333 9.3174C6.29266 9.52952 5.79258 9.85471 5.37533 10.272L3.28948 12.3442C3.17255 12.4635 3.08677 12.6096 3.03971 12.7698C2.99264 12.9301 2.98574 13.0994 3.01961 13.2629C3.05348 13.4264 3.12708 13.5791 3.23392 13.7074C3.34075 13.8358 3.47754 13.9359 3.63221 13.9988L6.5026 15.1956C6.28826 15.8458 6.10949 16.5072 5.96708 17.1768C5.93844 17.3083 5.94328 17.4449 5.98118 17.574C6.01908 17.7031 6.08881 17.8206 6.18397 17.9158L10.0933 21.8247C10.1884 21.9199 10.306 21.9896 10.4351 22.0275C10.5642 22.0654 10.7008 22.0702 10.8323 22.0416C11.502 21.8994 12.1635 21.7206 12.8137 21.5061L13.9999 24.3655C14.0629 24.5202 14.163 24.6569 14.2913 24.7638C14.4197 24.8706 14.5724 24.9442 14.7359 24.978C14.8994 25.0119 15.0688 25.005 15.229 24.9579C15.3892 24.9109 15.5354 24.8251 15.6547 24.7082L17.7271 22.6359C18.1438 22.2184 18.4684 21.7182 18.6801 21.1677C18.8918 20.6171 18.9858 20.0283 18.9561 19.4392L18.8919 18.1915C23.4251 14.5664 26.1509 9.23049 26.9916 2.30688C27.0128 2.13128 26.9937 1.95316 26.936 1.78599C26.8782 1.61882 26.7831 1.46697 26.6581 1.3419C26.533 1.21683 26.3811 1.12182 26.2139 1.06404C26.0467 1.00626 25.8686 0.987226 25.693 1.00837C18.7687 1.85174 13.4322 4.57459 9.82016 9.10465ZM25.3262 2.67903C24.4399 9.04843 21.8453 13.9239 17.5852 17.1661C17.4812 17.2452 17.398 17.3485 17.343 17.467C17.2879 17.5855 17.2626 17.7157 17.2692 17.8462L17.3549 19.5088C17.3737 19.8751 17.3152 20.2413 17.1833 20.5835C17.0514 20.9258 16.8489 21.2365 16.5891 21.4954L15.1406 22.9438L13.9999 20.1728C13.9196 19.9799 13.7674 19.8259 13.5754 19.7434C13.3834 19.6609 13.1669 19.6565 12.9717 19.731C12.2973 19.988 11.6079 20.2034 10.9073 20.3763L7.62184 17.0938C7.79479 16.3933 8.01029 15.7039 8.26714 15.0296C8.3425 14.8341 8.33847 14.6169 8.25594 14.4244C8.1734 14.2318 8.01888 14.0791 7.82534 13.9988L5.06205 12.8583L6.5026 11.4098C6.76138 11.1515 7.07135 10.9502 7.41259 10.8187C7.75384 10.6873 8.1188 10.6288 8.48403 10.6468L10.1468 10.7325C10.2773 10.7391 10.4075 10.7138 10.526 10.6587C10.6445 10.6037 10.7478 10.5206 10.8269 10.4165C14.0802 6.16493 18.9535 3.5572 25.3235 2.67636L25.3262 2.67903ZM18.8678 12.0497C19.5443 12.0493 20.1998 11.8143 20.7224 11.3848C21.2451 10.9553 21.6026 10.3579 21.7341 9.69433C21.8656 9.03077 21.7629 8.34215 21.4435 7.74582C21.1242 7.14948 20.6078 6.68235 19.9826 6.42401C19.3573 6.16567 18.6618 6.13212 18.0146 6.32908C17.3674 6.52604 16.8085 6.94131 16.4332 7.50414C16.0579 8.06696 15.8894 8.7425 15.9564 9.41564C16.0234 10.0888 16.3218 10.7178 16.8007 11.1957C17.0711 11.4682 17.3926 11.6846 17.7469 11.8326C18.1012 11.9805 18.4812 12.057 18.8651 12.0578L18.8678 12.0497ZM17.936 8.19436C18.1208 8.01173 18.3556 7.88786 18.6107 7.83833C18.8658 7.7888 19.1299 7.81581 19.3697 7.91598C19.6094 8.01614 19.8143 8.18499 19.9583 8.40126C20.1024 8.61754 20.1792 8.87158 20.1792 9.13143C20.1792 9.39127 20.1024 9.64532 19.9583 9.86159C19.8143 10.0779 19.6094 10.2467 19.3697 10.3469C19.1299 10.447 18.8658 10.4741 18.6107 10.4245C18.3556 10.375 18.1208 10.2511 17.936 10.0685C17.8127 9.94648 17.7147 9.80126 17.6478 9.64122C17.5809 9.48117 17.5463 9.30947 17.546 9.136C17.5458 8.96253 17.5799 8.79073 17.6463 8.63049C17.7128 8.47026 17.8103 8.32476 17.9333 8.20239L17.936 8.19436ZM2.00155 27H2.01762C6.41692 26.9224 8.57775 24.5904 9.30338 23.5784C9.41481 23.4229 9.47588 23.2371 9.47832 23.0459C9.48076 22.8546 9.42446 22.6673 9.31703 22.5091C9.2096 22.3508 9.0562 22.2294 8.87755 22.1611C8.6989 22.0928 8.5036 22.081 8.31802 22.1272C7.78864 22.2642 7.23839 22.3014 6.69539 22.237C6.45755 22.2082 6.23624 22.1005 6.06684 21.9311C5.89743 21.7617 5.78971 21.5404 5.76091 21.3026C5.69646 20.7597 5.73369 20.2095 5.87069 19.6802C5.91692 19.4946 5.9051 19.2993 5.83681 19.1207C5.76853 18.942 5.64707 18.7887 5.48884 18.6812C5.33061 18.5738 5.14323 18.5175 4.95199 18.52C4.76075 18.5224 4.57486 18.5835 4.41943 18.6949C3.418 19.4178 1.0751 21.5811 1.00013 25.9773C0.998 26.1106 1.02238 26.243 1.07185 26.3668C1.12133 26.4906 1.19491 26.6034 1.28833 26.6985C1.38174 26.7937 1.49313 26.8693 1.61603 26.9211C1.73893 26.9728 1.87088 26.9997 2.00423 27H2.00155ZM4.14363 21.2009C4.14363 21.299 4.15256 21.3963 4.17041 21.4927C4.24197 22.0869 4.51055 22.64 4.93329 23.0636C5.35603 23.4873 5.90854 23.7571 6.5026 23.83L6.79446 23.8568C5.58521 24.7539 4.13953 25.2771 2.63614 25.3615C2.71927 23.8576 3.24152 22.4111 4.13828 21.2009H4.14363Z" fill="#1D71B8"/>
<path d="M9.82016 9.10465L8.57239 9.0404C7.98301 9.01091 7.39399 9.10527 6.84333 9.3174C6.29266 9.52952 5.79258 9.85471 5.37533 10.272L3.28948 12.3442C3.17255 12.4635 3.08677 12.6096 3.03971 12.7698C2.99264 12.9301 2.98574 13.0994 3.01961 13.2629C3.05348 13.4264 3.12708 13.5791 3.23392 13.7074C3.34075 13.8358 3.47754 13.9359 3.63221 13.9988L6.5026 15.1956C6.28826 15.8458 6.10949 16.5072 5.96708 17.1768C5.93844 17.3083 5.94328 17.4449 5.98118 17.574C6.01908 17.7031 6.08881 17.8206 6.18397 17.9158L10.0933 21.8247C10.1884 21.9199 10.306 21.9896 10.4351 22.0275C10.5642 22.0654 10.7008 22.0702 10.8323 22.0416C11.502 21.8994 12.1635 21.7206 12.8137 21.5061L13.9999 24.3655C14.0629 24.5202 14.163 24.6569 14.2913 24.7638C14.4197 24.8706 14.5724 24.9442 14.7359 24.978C14.8994 25.0119 15.0688 25.005 15.229 24.9579C15.3892 24.9109 15.5354 24.8251 15.6547 24.7082L17.7271 22.6359C18.1438 22.2184 18.4684 21.7182 18.6801 21.1677C18.8918 20.6171 18.9858 20.0283 18.9561 19.4392L18.8919 18.1915C23.4251 14.5664 26.1509 9.23049 26.9916 2.30688C27.0128 2.13128 26.9937 1.95316 26.936 1.78599C26.8782 1.61882 26.7831 1.46697 26.6581 1.3419C26.533 1.21683 26.3811 1.12182 26.2139 1.06404C26.0467 1.00626 25.8686 0.987226 25.693 1.00837C18.7687 1.85174 13.4322 4.57459 9.82016 9.10465ZM25.3262 2.67903C24.4399 9.04843 21.8453 13.9239 17.5852 17.1661C17.4812 17.2452 17.398 17.3485 17.343 17.467C17.2879 17.5855 17.2626 17.7157 17.2692 17.8462L17.3549 19.5088C17.3737 19.8751 17.3152 20.2413 17.1833 20.5835C17.0514 20.9258 16.8489 21.2365 16.5891 21.4954L15.1406 22.9438L13.9999 20.1728C13.9196 19.9799 13.7674 19.8259 13.5754 19.7434C13.3834 19.6609 13.1669 19.6565 12.9717 19.731C12.2973 19.988 11.6079 20.2034 10.9073 20.3763L7.62184 17.0938C7.79479 16.3933 8.01029 15.7039 8.26714 15.0296C8.3425 14.8341 8.33847 14.6169 8.25594 14.4244C8.1734 14.2318 8.01888 14.0791 7.82534 13.9988L5.06205 12.8583L6.5026 11.4098C6.76138 11.1515 7.07135 10.9502 7.41259 10.8187C7.75384 10.6873 8.1188 10.6288 8.48403 10.6468L10.1468 10.7325C10.2773 10.7391 10.4075 10.7138 10.526 10.6587C10.6445 10.6037 10.7478 10.5206 10.8269 10.4165C14.0802 6.16493 18.9535 3.5572 25.3235 2.67636L25.3262 2.67903ZM18.8678 12.0497C19.5443 12.0493 20.1998 11.8143 20.7224 11.3848C21.2451 10.9553 21.6026 10.3579 21.7341 9.69433C21.8656 9.03077 21.7629 8.34215 21.4435 7.74582C21.1242 7.14948 20.6078 6.68235 19.9826 6.42401C19.3573 6.16567 18.6618 6.13212 18.0146 6.32908C17.3674 6.52604 16.8085 6.94131 16.4332 7.50414C16.0579 8.06696 15.8894 8.7425 15.9564 9.41564C16.0234 10.0888 16.3218 10.7178 16.8007 11.1957C17.0711 11.4682 17.3926 11.6846 17.7469 11.8326C18.1012 11.9805 18.4812 12.057 18.8651 12.0578L18.8678 12.0497ZM17.936 8.19436C18.1208 8.01173 18.3556 7.88786 18.6107 7.83833C18.8658 7.7888 19.1299 7.81581 19.3697 7.91598C19.6094 8.01614 19.8143 8.18499 19.9583 8.40126C20.1024 8.61754 20.1792 8.87158 20.1792 9.13143C20.1792 9.39127 20.1024 9.64532 19.9583 9.86159C19.8143 10.0779 19.6094 10.2467 19.3697 10.3469C19.1299 10.447 18.8658 10.4741 18.6107 10.4245C18.3556 10.375 18.1208 10.2511 17.936 10.0685C17.8127 9.94648 17.7147 9.80126 17.6478 9.64122C17.5809 9.48117 17.5463 9.30947 17.546 9.136C17.5458 8.96253 17.5799 8.79073 17.6463 8.63049C17.7128 8.47026 17.8103 8.32476 17.9333 8.20239L17.936 8.19436ZM2.00155 27H2.01762C6.41692 26.9224 8.57775 24.5904 9.30338 23.5784C9.41481 23.4229 9.47588 23.2371 9.47832 23.0459C9.48076 22.8546 9.42446 22.6673 9.31703 22.5091C9.2096 22.3508 9.0562 22.2294 8.87755 22.1611C8.6989 22.0928 8.5036 22.081 8.31802 22.1272C7.78864 22.2642 7.23839 22.3014 6.69539 22.237C6.45755 22.2082 6.23624 22.1005 6.06684 21.9311C5.89743 21.7617 5.78971 21.5404 5.76091 21.3026C5.69646 20.7597 5.73369 20.2095 5.87069 19.6802C5.91692 19.4946 5.9051 19.2993 5.83681 19.1207C5.76853 18.942 5.64707 18.7887 5.48884 18.6812C5.33061 18.5738 5.14323 18.5175 4.95199 18.52C4.76075 18.5224 4.57486 18.5835 4.41943 18.6949C3.418 19.4178 1.0751 21.5811 1.00013 25.9773C0.998 26.1106 1.02238 26.243 1.07185 26.3668C1.12133 26.4906 1.19491 26.6034 1.28833 26.6985C1.38174 26.7937 1.49313 26.8693 1.61603 26.9211C1.73893 26.9728 1.87088 26.9997 2.00423 27H2.00155ZM4.14363 21.2009C4.14363 21.299 4.15256 21.3963 4.17041 21.4927C4.24197 22.0869 4.51055 22.64 4.93329 23.0636C5.35603 23.4873 5.90854 23.7571 6.5026 23.83L6.79446 23.8568C5.58521 24.7539 4.13953 25.2771 2.63614 25.3615C2.71927 23.8576 3.24152 22.4111 4.13828 21.2009H4.14363Z" stroke="#1D71B8" stroke-width="0.4" mask="url(#path-1-outside-1)"/>
</svg>
