<svg width="318" height="95" viewBox="0 0 318 95" fill="none" xmlns="http://www.w3.org/2000/svg">
<path opacity="0.6" d="M318 79.7318C318.011 84.3333 317.741 88.9466 317.153 93.5834C317.012 94.6308 306.039 93.4186 305.886 94.4543L237.391 94.6896H84.3481V94.619L237.391 94.0894L305.886 93.8541C306.039 92.8184 317.012 94.0424 317.153 92.9832C317.706 88.5582 318 84.1215 318 79.7318Z" fill="#EBF3FA"/>
<path d="M61.5441 94.533H43.9735C43.162 94.533 42.5034 93.8739 42.5034 93.0619V76.0917C42.5034 75.2796 43.162 74.6206 43.9735 74.6206H61.5441C62.3556 74.6206 63.0142 75.2796 63.0142 76.0917V93.0619C63.0142 93.8739 62.3556 94.533 61.5441 94.533Z" fill="#C0D8FB"/>
<path d="M60.7911 93.6742H44.7377C43.9968 93.6742 43.397 93.074 43.397 92.3326V76.8334C43.397 76.092 43.9968 75.4918 44.7377 75.4918H60.7911C61.5321 75.4918 62.1319 76.092 62.1319 76.8334V92.3326C62.1201 93.074 61.5203 93.6742 60.7911 93.6742Z" fill="#DFEBFD"/>
<path d="M52.7591 77.7276C52.9929 77.7276 53.1825 77.5379 53.1825 77.3039C53.1825 77.0699 52.9929 76.8802 52.7591 76.8802C52.5252 76.8802 52.3357 77.0699 52.3357 77.3039C52.3357 77.5379 52.5252 77.7276 52.7591 77.7276Z" fill="#B7D3F3"/>
<path d="M55.758 77.9037C55.8756 77.7036 56.1343 77.6212 56.3342 77.7389C56.5342 77.8566 56.6165 78.1155 56.4989 78.3155C56.3813 78.5156 56.1226 78.598 55.9226 78.4803C55.7227 78.3744 55.6521 78.1155 55.758 77.9037Z" fill="#B7D3F3"/>
<path d="M58.698 80.2458C58.898 80.1163 59.1567 80.1752 59.2861 80.3753C59.4155 80.5753 59.3567 80.8342 59.1567 80.9637C58.9568 81.0932 58.698 81.0343 58.5687 80.8342C58.4511 80.6342 58.4981 80.3635 58.698 80.2458Z" fill="#B7D3F3"/>
<path d="M60.5484 84.4359C60.6375 84.2195 60.5343 83.9719 60.3181 83.8828C60.1019 83.7938 59.8544 83.897 59.7654 84.1133C59.6764 84.3297 59.7795 84.5773 59.9958 84.6664C60.212 84.7555 60.4594 84.6523 60.5484 84.4359Z" fill="#B7D3F3"/>
<path d="M59.4154 88.0486C59.5801 88.2134 59.5801 88.4841 59.4154 88.6488C59.2508 88.8136 58.9803 88.8136 58.8156 88.6488C58.651 88.4841 58.651 88.2134 58.8156 88.0486C58.9803 87.8839 59.2508 87.8839 59.4154 88.0486Z" fill="#B7D3F3"/>
<path d="M56.44 91.4496C56.6738 91.4496 56.8634 91.2599 56.8634 91.026C56.8634 90.792 56.6738 90.6023 56.44 90.6023C56.2062 90.6023 56.0166 90.792 56.0166 91.026C56.0166 91.2599 56.2062 91.4496 56.44 91.4496Z" fill="#B7D3F3"/>
<path d="M52.7588 92.532C52.9927 92.532 53.1822 92.3424 53.1822 92.1084C53.1822 91.8744 52.9927 91.6847 52.7588 91.6847C52.525 91.6847 52.3354 91.8744 52.3354 92.1084C52.3354 92.3424 52.525 92.532 52.7588 92.532Z" fill="#B7D3F3"/>
<path d="M49.7483 77.9049C49.6307 77.7049 49.3719 77.6225 49.172 77.7402C48.972 77.8579 48.8897 78.1168 49.0073 78.3168C49.1249 78.5169 49.3837 78.5993 49.5836 78.4816C49.7835 78.3757 49.8541 78.1168 49.7483 77.9049Z" fill="#B7D3F3"/>
<path d="M46.8082 80.247C46.6082 80.1176 46.3495 80.1764 46.2201 80.3765C46.0908 80.5766 46.1496 80.8355 46.3495 80.9649C46.5494 81.0944 46.8082 81.0356 46.9375 80.8355C47.0551 80.6354 47.0081 80.3647 46.8082 80.247Z" fill="#B7D3F3"/>
<path d="M45.3497 84.7074C45.5835 84.7074 45.773 84.5177 45.773 84.2837C45.773 84.0497 45.5835 83.86 45.3497 83.86C45.1158 83.86 44.9263 84.0497 44.9263 84.2837C44.9263 84.5177 45.1158 84.7074 45.3497 84.7074Z" fill="#B7D3F3"/>
<path d="M46.0908 88.0494C45.9261 88.2141 45.9261 88.4848 46.0908 88.6496C46.2554 88.8144 46.5259 88.8144 46.6906 88.6496C46.8552 88.4848 46.8552 88.2141 46.6906 88.0494C46.5259 87.8846 46.2554 87.8846 46.0908 88.0494Z" fill="#B7D3F3"/>
<path d="M49.0662 91.4504C49.3 91.4504 49.4896 91.2607 49.4896 91.0268C49.4896 90.7928 49.3 90.6031 49.0662 90.6031C48.8324 90.6031 48.6428 90.7928 48.6428 91.0268C48.6428 91.2607 48.8324 91.4504 49.0662 91.4504Z" fill="#B7D3F3"/>
<path d="M53.0765 84.7066C53.3103 84.7066 53.4998 84.517 53.4998 84.283C53.4998 84.049 53.3103 83.8593 53.0765 83.8593C52.8426 83.8593 52.6531 84.049 52.6531 84.283C52.6531 84.517 52.8426 84.7066 53.0765 84.7066Z" fill="#B7D3F3"/>
<path d="M53.1349 78.9637H53.0173V84.2714H53.1349V78.9637Z" fill="#B7D3F3"/>
<path d="M55.716 81.9193L52.9041 84.1285L53.1219 84.4062L55.9339 82.197L55.716 81.9193Z" fill="#B7D3F3"/>
<g opacity="0.8">
<path d="M287.88 30.5041V94.5485H90.2402V38.8244H105.388V23.6077H120.536V44.1556H132.802V39.5658H154.172V47.3331H163.463V29.9039H188.36V0H208.036V15.9464H212.529V2.58908H232.205V23.1605H250.046V10.5446H269.122V23.1605H272.673V30.5041H287.88Z" fill="#E8F0FD"/>
<path d="M90.2403 10.7329V94.5131H78.4678V11.0271C82.2783 11.3449 86.1946 11.286 90.2403 10.7329Z" fill="#DEEDFF"/>
<path d="M298.724 19.5444V94.6277H286.951V5.62219C291.303 9.94125 295.231 14.6016 298.724 19.5444Z" fill="#DEEDFF"/>
</g>
<path d="M99.8959 64.8826H98.0024L100.319 94.1744H104.906L99.8959 64.8826Z" fill="#B7D3F3"/>
<path d="M137.448 56.3383L137.048 56.4207C135.237 56.7855 133.473 55.6087 133.097 53.7963L132.673 51.678C132.309 49.8657 133.485 48.1004 135.296 47.7238L135.696 47.6414C137.507 47.2766 139.271 48.4534 139.647 50.2658L140.071 52.3841C140.435 54.1964 139.259 55.9735 137.448 56.3383Z" fill="#122544"/>
<path d="M98.0024 64.8824C98.0024 64.8824 108.317 60.0338 122.453 63.2584L99.8959 64.8824H98.0024Z" fill="#B7D3F3"/>
<path d="M104.906 94.4564L99.8843 64.8821C99.8843 64.8821 115.691 59.5745 127.945 64.8821L135.237 94.268L104.906 94.4564Z" fill="#D2E3FC"/>
<path d="M214.175 85.3012C213.893 88.514 212.082 89.5026 211.294 89.4202C210.494 89.3378 205.837 87.5608 205.743 88.208C205.637 88.8553 208.448 90.9972 210.412 91.0913C210.412 91.0913 206.707 95.1868 204.249 93.9981C201.791 92.8213 201.58 90.9501 200.039 90.244C198.498 89.5379 197.193 89.5496 197.828 90.2558C198.463 90.9736 201.239 91.668 202.121 93.2214C202.332 93.5863 202.532 93.9275 202.685 94.2218L197.499 94.21C195.852 93.3979 194.464 92.2682 194.37 91.0443C194.359 90.9501 194.359 90.8677 194.347 90.7736C194.182 88.9024 194.182 88.9024 194.182 88.9024C194.182 88.9024 191.524 85.7955 192.9 83.2182C193.135 82.7945 193.476 82.3708 193.959 81.9943C193.959 81.9943 196.44 80.4879 198.463 80.6173C198.463 80.6173 196.899 83.2535 196.452 84.8069C196.299 85.3601 196.276 85.7719 196.522 85.9014C196.781 86.0426 197.134 85.6425 197.487 85.007C198.369 83.4182 199.333 80.3113 199.333 80.3113C199.333 80.3113 200.827 80.1701 202.52 80.1466C203.285 80.1348 204.085 80.1466 204.814 80.2172C205.614 80.2878 206.331 80.4173 206.79 80.6409C206.79 80.6409 206.684 80.7233 206.519 80.8645C206.26 81.0763 205.861 81.4176 205.414 81.8177C204.073 83.0063 202.332 84.6775 202.979 84.8305C203.508 84.9481 205.155 83.9714 206.625 82.9946C207.989 82.0884 209.201 81.1822 209.201 81.1822C209.201 81.1822 214.458 82.0884 214.175 85.3012Z" fill="#82B378"/>
<path d="M211.6 85.384C211.6 85.384 197.322 84.8309 194.17 88.9146C194.17 88.9146 193.476 91.0094 191.324 92.9041L190.995 93.8221C190.995 93.8221 193.465 91.2095 194.358 91.0565C194.347 91.0565 192.971 85.996 211.6 85.384Z" fill="#82B378"/>
<path d="M191.924 92.8925C191.806 93.022 191.618 93.2103 191.359 93.4574C191.265 93.5398 191.183 93.6339 191.089 93.7281C190.96 93.8693 190.83 94.034 190.713 94.2106H190.042C190.724 93.3632 191.324 92.916 191.324 92.916C191.383 92.8807 192.606 92.1393 191.924 92.8925Z" fill="#82B378"/>
<path d="M178.588 83.606C178.588 83.606 184.35 80.3814 181.657 76.0035C181.657 76.0035 179.505 73.3085 177.2 72.626C177.2 72.626 178.423 79.1575 177.2 79.3105C175.977 79.4635 176.353 71.9316 176.353 71.9316C176.353 71.9316 170.284 69.013 167.909 69.2366C167.909 69.2366 171.672 75.6152 170.437 75.4622C169.214 75.3092 164.98 68.8483 164.98 68.8483C164.98 68.8483 158.759 67.6949 157.759 71.3785C156.759 75.062 158.371 76.9097 159.3 77.1451C160.217 77.3804 166.133 77.2981 165.98 78.063C165.827 78.828 161.828 80.0637 159.606 79.3693C159.606 79.3693 162.064 85.4419 165.286 85.1359C168.509 84.8299 169.508 82.8293 171.508 82.6763C173.507 82.5233 174.965 83.0647 173.966 83.5942C172.966 84.1356 169.591 83.7708 167.979 85.1477C166.368 86.5246 165.063 87.3602 168.062 87.9839C171.061 88.5959 176.435 88.2193 177.506 85.9126C178.588 83.606 178.588 83.606 178.588 83.606Z" fill="#A8D29F"/>
<path d="M160.617 72.5322C160.617 72.5322 176.741 77.7575 178.587 83.5947C178.587 83.5947 178.505 86.2073 180.128 89.2083V90.3616C180.128 90.3616 178.435 86.4426 177.517 85.9013C177.505 85.9131 181.116 80.8408 160.617 72.5322Z" fill="#82B378"/>
<path d="M181.61 94.1861H180.693C180.669 92.8563 180.505 91.3499 180.058 90.2084C179.999 90.0672 179.94 89.9259 179.87 89.7965C179.681 89.4199 179.552 89.1492 179.47 88.9491C178.999 87.7958 180.128 89.208 180.128 89.208C180.128 89.208 181.469 91.2675 181.61 94.1861Z" fill="#82B378"/>
<path d="M187.749 79.1581C187.749 79.1581 180.152 74.8979 183.703 69.1313C183.703 69.1313 186.538 65.589 189.572 64.671C189.572 64.671 187.949 73.2856 189.572 73.4857C191.195 73.6857 190.689 63.7649 190.689 63.7649C190.689 63.7649 198.687 59.9166 201.827 60.2226C201.827 60.2226 196.864 68.6253 198.487 68.4252C200.11 68.2251 205.673 59.7165 205.673 59.7165C205.673 59.7165 213.87 58.1984 215.187 63.0588C216.504 67.9192 214.376 70.3552 213.164 70.6612C211.953 70.9672 204.155 70.8613 204.355 71.8734C204.555 72.8855 209.824 74.5095 212.753 73.5916C212.753 73.5916 209.518 81.5942 205.261 81.194C201.004 80.7939 199.698 78.1578 197.064 77.9577C194.429 77.7576 192.512 78.4637 193.829 79.1699C195.147 79.876 199.604 79.4052 201.721 81.2058C203.85 83.0181 205.567 84.1244 201.615 84.9364C197.663 85.7484 190.583 85.2424 189.16 82.2061C187.749 79.1581 187.749 79.1581 187.749 79.1581Z" fill="#A8D29F"/>
<path d="M211.435 64.5649C211.435 64.5649 190.172 71.4495 187.749 79.1461C187.749 79.1461 187.855 82.5943 185.726 86.5367V88.0549C185.726 88.0549 187.949 82.8885 189.172 82.1824C189.16 82.1942 184.409 75.5096 211.435 64.5649Z" fill="#82B378"/>
<path d="M186.585 86.1952C186.479 86.4659 186.302 86.8307 186.055 87.325C185.973 87.5015 185.891 87.6781 185.808 87.8664C185.079 89.6905 184.938 92.2089 184.962 94.1978H183.738C183.597 89.7729 185.714 86.5483 185.714 86.5483C185.75 86.5012 187.196 84.6889 186.585 86.1952Z" fill="#82B378"/>
<path d="M149.95 94.2688H121.077C120.654 93.2332 120.278 92.1269 119.948 90.9736C119.125 88.0903 118.596 84.9128 118.255 81.8059C118.255 81.7706 118.243 81.7235 118.243 81.6882C117.655 76.2982 117.655 71.1083 117.737 67.9896C117.784 66.189 117.855 65.071 117.855 65.0239C117.914 65.0004 117.984 64.9768 118.043 64.9533C119.572 64.306 121.042 63.7529 122.453 63.2822C122.465 63.2822 122.465 63.2822 122.465 63.2822C123.653 62.882 124.782 62.529 125.887 62.2348C127.816 61.7052 129.604 61.3286 131.262 61.0579C133.214 60.7519 134.99 60.5989 136.566 60.5636C136.637 60.5636 136.707 60.5636 136.778 60.5636C137.201 60.5519 137.601 60.5636 137.989 60.5636C141.941 60.646 144.575 61.4345 145.904 61.9641C146.092 62.0347 146.245 62.1053 146.387 62.1642C146.398 62.1759 146.422 62.1759 146.434 62.1877C146.586 62.2583 146.704 62.3172 146.786 62.3525C146.798 62.3525 146.81 62.3642 146.822 62.3642C146.857 62.3878 146.904 62.4113 146.939 62.4231L149.021 84.3244L149.95 94.2688Z" fill="#1D71B8"/>
<path d="M178.728 89.5377C175.835 90.8793 158.629 92.0091 156.971 91.5384C156.124 91.2912 152.572 88.1608 149.009 84.3243C145.634 80.6878 142.223 76.404 141.082 73.3207C138.718 66.9892 140.753 61.3639 140.753 61.3639C140.753 61.3639 145.14 61.3403 146.939 62.423C148.727 63.5057 158.958 82.3707 160.334 82.865C161.699 83.371 177.917 84.289 179.775 85.1716C179.752 85.1598 181.61 88.1843 178.728 89.5377Z" fill="#1D71B8"/>
<path d="M136.766 61.3048V62.3757C136.766 62.3757 137.06 65.7062 132.955 66.2005C128.851 66.6948 125.746 64.906 125.852 62.3404C126.217 60.3515 126.616 58.9746 126.652 57.327C126.663 56.7151 126.616 56.0678 126.499 55.3264L134.449 55.1498L136.79 55.5264L136.766 61.3048Z" fill="#EA9E6A"/>
<path d="M136.79 55.5384L136.766 61.3049C135.919 61.7051 134.967 61.9404 133.896 61.9404C130.239 61.9404 126.605 56.0562 126.487 55.3265L136.79 55.5384Z" fill="#D88D59"/>
<path d="M137.248 58.3393C137.248 58.3393 127.063 60.4105 125.875 54.0438C124.687 47.677 122.559 43.6639 129.015 42.0634C135.46 40.4746 137.189 42.6636 138.106 44.6878C139.024 46.7237 139.871 57.6332 137.248 58.3393Z" fill="#EA9E6A"/>
<path d="M140.083 39.9685C140.083 39.9685 137.237 39.7566 133.885 38.2973C131.168 37.1205 127.734 38.4268 126.628 39.0152C126.664 38.8387 126.734 38.5916 126.899 38.3444C126.899 38.3444 126.405 38.6975 126.323 39.1918C126.276 39.2271 126.252 39.2506 126.264 39.2624C126.264 39.2624 125.699 39.1564 125.335 39.3212C125.335 39.3212 125.593 39.2859 125.676 39.4507C125.687 39.4624 125.699 39.486 125.711 39.4977C121.477 41.5572 121.089 48.2653 122.453 49.807C124.1 51.6664 126.076 55.8677 126.076 55.8677C126.076 55.8677 126.793 54.8674 126.487 53.2316C126.181 51.5958 127.604 51.584 129.392 50.8426C131.18 50.0894 129.686 48.0064 131.25 46.7354C132.814 45.4644 138.566 46.2058 138.483 45.229C140.635 44.4523 140.083 40.1803 140.083 39.9685Z" fill="#F3911C"/>
<path d="M121.066 94.2684C120.642 93.2328 120.266 92.1266 119.937 90.9732C119.113 88.0899 118.584 84.9125 118.243 81.8056C118.243 81.7703 118.231 81.7232 118.231 81.6879C118.255 81.6996 118.29 81.7585 118.314 81.7232C119.443 80.358 122.512 78.8634 126.229 84.3005C126.969 85.3832 130.227 92.9857 130.745 94.2567H121.066V94.2684Z" fill="#264FA3"/>
<path d="M124.088 94.2684C124.005 93.7741 124.099 93.1621 124.476 92.3854C124.476 92.3854 124.958 92.0794 125.581 91.7146C126.522 91.185 127.816 90.5377 128.392 90.6437C128.498 90.6672 128.639 90.6907 128.804 90.7378C130.192 91.0673 133.426 92.0677 133.908 92.6443C134.308 93.1268 134.861 93.7388 135.237 94.2684H124.088Z" fill="#EA9E6A"/>
<path d="M126.228 94.2687H99.0139C98.9434 93.9157 98.9434 93.5979 99.0374 93.3508C99.8489 91.3031 101.437 87.9255 103.26 84.3008C104.6 81.6411 106.07 78.8402 107.458 76.3335C109.387 72.8617 111.151 69.9549 112.186 68.7545C113.009 67.813 114.032 67.0245 115.114 66.3773C116.032 65.8241 116.973 65.3769 117.843 65.0121C117.902 64.9886 117.972 64.965 118.031 64.9415C119.925 64.1766 121.43 63.8353 121.43 63.8353C121.43 63.8353 121.454 64.6944 121.454 66.0124C121.454 69.849 121.312 77.5809 120.089 79.4757C119.748 80.0053 119.113 80.7937 118.313 81.7235C118.29 81.747 118.266 81.7705 118.243 81.8058C117.808 82.3119 117.337 82.8532 116.832 83.4064C113.997 86.5839 110.398 90.3263 109.951 90.7852C109.916 90.8205 109.904 90.8323 109.904 90.8323H109.951L117.584 90.9382L119.925 90.9735L124.782 91.0442C125.111 91.1854 125.382 91.4207 125.582 91.715C126.052 92.4093 126.205 93.4096 126.228 94.2687Z" fill="#1D71B8"/>
<path d="M178.728 89.5376C175.835 90.8792 158.629 92.009 156.971 91.5383C156.124 91.2911 152.573 88.1607 149.009 84.3241C149.185 84.3477 150.82 81.6291 158.265 88.1371C158.265 88.1371 160.217 89.008 165.521 88.5137C170.813 88.0195 177.623 87.8429 178.728 89.5376Z" fill="#264FA3"/>
<path d="M161.762 94.019H142.086C142.086 93.1481 142.792 92.4537 143.65 92.4537H161.75V94.019H161.762Z" fill="#F3911C"/>
<path d="M161.757 72.7784H192.183L184.879 94.2207H154.266L161.757 72.7784Z" fill="#E58715"/>
<path d="M192.575 72.5765L185.271 94.0188H154.658L162.15 72.5765H192.575Z" fill="#F3911C"/>
<path d="M176.223 83.3C176.035 84.1238 175.212 84.7829 174.4 84.7829C173.589 84.7829 173.071 84.1238 173.26 83.3C173.448 82.4762 174.271 81.8172 175.083 81.8172C175.894 81.8172 176.412 82.4762 176.223 83.3Z" fill="#1D71B8"/>
<path d="M192.63 72.7784L185.326 94.2207H171.084L188.149 72.7784H192.63Z" fill="#E68715"/>
<path d="M128.839 56.3383L128.44 56.4207C126.628 56.7855 124.864 55.6087 124.488 53.7963L124.065 51.678C123.7 49.8657 124.876 48.1004 126.687 47.7238L127.087 47.6414C128.898 47.2766 130.662 48.4534 131.039 50.2658L131.462 52.3841C131.827 54.1964 130.639 55.9735 128.839 56.3383Z" fill="#122544"/>
<path d="M125.687 48.7009C125.417 48.2066 125.017 44.2641 126.099 41.1219C126.628 39.6038 127.475 38.7329 128.533 38.1562C128.921 37.9444 129.345 37.8267 129.792 37.8267L130.862 37.8503C127.345 39.3449 126.522 47.3122 126.804 48.1713C126.793 48.1478 126.781 48.1242 126.781 48.1125L125.687 48.7009Z" fill="#122544"/>
<path d="M135.955 56.9976C130.039 56.9976 127.11 52.3254 127.087 52.2783L127.616 51.9606L127.357 52.1253L127.616 51.9606C127.64 52.0076 130.403 56.3856 135.955 56.3856C135.99 56.3856 136.025 56.3856 136.06 56.3856L136.072 57.0093C136.025 56.9976 135.99 56.9976 135.955 56.9976Z" fill="#122544"/>
<path d="M127.887 54.2552L127.687 54.2905C126.793 54.467 125.899 53.8904 125.723 52.9842L125.511 51.925C125.335 51.0306 125.911 50.1362 126.816 49.9597L127.016 49.9244C127.91 49.7479 128.804 50.3245 128.98 51.2307L129.192 52.2899C129.368 53.196 128.78 54.0787 127.887 54.2552Z" fill="#4062A7"/>
<path d="M136.684 57.2095H136.131C135.848 57.2095 135.613 56.9741 135.613 56.6916C135.613 56.4092 135.848 56.1738 136.131 56.1738H136.684C136.966 56.1738 137.201 56.4092 137.201 56.6916C137.201 56.9741 136.966 57.2095 136.684 57.2095Z" fill="#122544"/>
<path d="M18.3821 48.1335C18.3821 48.1335 13.419 50.6755 17.0413 56.1243C17.0413 56.1243 12.7839 56.6186 11.7019 55.3947C11.7019 55.3947 11.8666 55.936 12.0548 56.195C12.0548 56.195 7.92673 55.6536 6.44487 54.0884C4.96301 52.5232 9.585 31.6928 20.5813 35.953C20.5813 35.953 30.3663 36.8475 27.5908 47.8746C24.8152 58.9017 28.4611 59.5137 28.4611 59.5137C28.4611 59.5137 27.3673 59.8432 26.8734 59.7608C26.8734 59.7608 26.203 59.3725 26.1324 58.9488C26.1324 58.9488 26.1677 59.5961 26.3206 59.8197C26.3206 59.8197 22.3219 59.5372 20.6049 57.7131C18.876 55.9007 17.4294 50.346 18.3821 48.1335Z" fill="#C4ACD4"/>
<path d="M25.462 53.5819L25.0621 53.6408C23.298 53.8879 21.6397 52.6404 21.4045 50.8634L21.1223 48.7803C20.8753 47.0151 22.1219 45.3557 23.8978 45.1203L24.2977 45.0615C26.0618 44.8144 27.7201 46.0618 27.9553 47.8389L28.2375 49.9219C28.4845 51.6872 27.2379 53.3348 25.462 53.5819Z" fill="#1D71B8"/>
<path d="M26.5912 70.2345C25.1093 71.3761 24.1685 75.5068 21.7928 76.1894C12.8428 78.7432 8.04445 68.1162 6.46851 62.9263C7.66811 62.1613 8.82066 61.9377 9.49102 61.8318C10.1379 61.7259 10.8318 61.6317 11.3963 61.5729C12.3724 60.7373 13.7249 57.4774 13.8072 52.5111L14.2424 52.6052L21.4753 54.194C21.4753 54.194 21.2636 56.4771 21.2165 58.6307C21.1812 60.3136 21.1224 60.7138 21.2518 60.9138C21.8163 61.008 22.4749 62.4437 22.4749 62.4437C22.4749 62.4437 22.4749 62.4437 22.4749 62.4555C22.5808 62.6085 24.8271 65.9037 26.5912 70.2345Z" fill="#FFB27D"/>
<path d="M21.4753 54.1826C21.4753 54.1826 21.2636 56.4656 21.2166 58.6193C17.1473 58.4192 15.0774 54.6651 14.2424 52.5938L21.4753 54.1826Z" fill="#ED985F"/>
<path d="M58.2747 91.7353C58.2747 91.7353 54.0173 91.8883 49.3953 91.9118C48.8543 91.9118 48.2898 91.9118 47.7488 91.9118C43.9853 91.9001 40.2924 91.7588 38.7165 91.3587C37.1758 90.9586 31.2601 86.9573 26.5323 82.0968C26.1677 82.9677 25.8855 83.6385 25.8855 83.6974C25.7443 84.7919 25.5091 85.8863 25.2386 86.9337C24.1684 90.935 22.3808 94.3008 22.3102 94.4185H19.7816L0 94.395C0 94.395 3.73993 88.6402 2.7285 73.8824C2.70498 73.5058 6.17441 61.6078 6.17441 61.6078C6.17441 61.6078 8.86763 61.137 11.9842 60.8899C12.2783 61.1606 12.878 68.9867 16.7826 69.4456C17.4177 69.5162 21.4869 75.73 21.4869 75.73L22.7218 69.375L21.2635 60.9487C23.1334 61.5019 24.1566 61.6902 25.7091 62.3139C26.7675 62.7376 27.6378 63.5143 28.1906 64.5146C30.9191 69.4927 39.7514 85.5568 40.657 85.9334C41.5038 86.2865 44.691 86.922 48.0545 87.5339C52.5589 88.3577 57.4044 89.1344 57.4044 89.1344L58.2747 91.7353Z" fill="url(#paint0_linear)"/>
<path d="M22.6862 56.3595C22.6862 56.3595 13.0659 56.1712 13.2776 50.181C13.4893 44.1908 12.3838 40.1307 18.5347 39.9895C24.6855 39.86 25.8028 42.1902 26.2144 44.2026C26.6261 46.2268 25.1912 56.2536 22.6862 56.3595Z" fill="#FFB27D"/>
<path d="M49.4071 91.9127C48.8661 91.9127 48.3016 91.9127 47.7606 91.9127C43.9972 91.9009 40.3043 91.7597 38.7284 91.3596C37.1877 90.9594 31.272 86.9581 26.5442 82.0977C26.5442 82.0977 27.5439 78.2729 27.9672 77.6374C28.4024 76.9901 30.0959 83.2157 34.0593 85.7459C38.0227 88.2762 44.2324 90.0532 47.2432 89.3354C49.2778 88.8411 49.4777 90.6652 49.4071 91.9127Z" fill="url(#paint1_linear)"/>
<path d="M20.793 53.0291C20.793 53.0291 20.8518 53.7471 22.4277 53.8647C22.4277 53.8647 23.7567 53.9589 23.8037 53.1939C23.8155 53.1821 22.6041 52.4524 20.793 53.0291Z" fill="white"/>
<path d="M21.3105 55.4532C15.8418 53.7232 14.501 48.545 14.4893 48.498L15.0773 48.3568L14.7833 48.4274L15.0773 48.3568C15.0891 48.4038 16.3592 53.2642 21.4987 54.8883C21.534 54.9001 21.5693 54.9118 21.6045 54.9236L21.4281 55.5002C21.3811 55.4767 21.3458 55.465 21.3105 55.4532Z" fill="#122544"/>
<path d="M21.9338 55.8538L21.4164 55.689C21.1576 55.6067 21.0047 55.3242 21.0871 55.0653C21.1694 54.8064 21.4516 54.6534 21.7104 54.7358L22.2278 54.9005C22.4866 54.9829 22.6395 55.2654 22.5571 55.5243C22.4748 55.795 22.1926 55.9362 21.9338 55.8538Z" fill="#ED7D2B"/>
<path d="M23.2276 39.2012C23.2276 39.2012 20.7696 46.4977 17.0649 47.7452C13.372 48.9809 12.1489 47.5216 12.1489 47.5216C12.1489 47.5216 14.8774 45.0149 15.1832 40.9665C15.1832 40.9547 21.1577 36.212 23.2276 39.2012Z" fill="#C4ACD4"/>
<path d="M18.6292 41.3428C18.6292 41.3428 23.651 41.0604 25.1446 42.4961C26.2266 43.5317 26.2031 44.0613 26.2854 45.4382C26.2854 45.4382 28.4847 42.0489 26.2266 39.6835C23.8274 37.165 18.6292 41.3428 18.6292 41.3428Z" fill="#C4ACD4"/>
<path d="M23.0158 39.9663C23.0158 39.9663 21.7574 46.9569 17.1707 49.4871C17.1707 49.4871 21.6162 44.9327 21.6986 40.3782C21.7691 35.8238 23.0158 39.9663 23.0158 39.9663Z" fill="#C4ACD4"/>
<path d="M6.44486 54.0762C7.92672 55.6414 12.0548 56.1827 12.0548 56.1827C11.8666 55.9238 11.7019 55.3825 11.7019 55.3825C13.8189 57.1007 19.0407 55.8532 19.0407 55.8532C14.8774 54.9353 16.2298 48.9333 17.6411 48.6744C18.4644 44.1435 20.0991 38.5064 20.8636 35.9762C20.6754 35.9409 20.5696 35.9409 20.5696 35.9409C9.57323 31.6807 4.963 52.511 6.44486 54.0762Z" fill="#C4ACD4"/>
<path d="M15.4774 52.9586L15.0775 53.0174C13.3134 53.2646 11.6551 52.0171 11.4199 50.24L11.1376 48.157C10.8907 46.3917 12.1373 44.7324 13.9132 44.497L14.3131 44.4381C16.0772 44.191 17.7354 45.4385 17.9707 47.2155L18.2529 49.2986C18.4881 51.0638 17.2415 52.7232 15.4774 52.9586Z" fill="#1D71B8"/>
<path d="M12.8783 45.3794C12.6431 44.9322 13.4663 41.4958 14.6895 38.8243C15.2775 37.5298 16.7594 35.8115 17.8178 35.3643C18.2059 35.1996 18.7116 35.2702 19.1233 35.3643C19.4291 35.4349 20.2758 35.8233 20.2758 35.8233C16.7946 36.906 13.7604 44.2143 13.9838 44.9675C13.972 44.9439 13.972 44.9322 13.9603 44.9086L12.8783 45.3794Z" fill="#1D71B8"/>
<path d="M14.6772 50.8988L14.4773 50.9223C13.5952 51.04 12.772 50.4281 12.6544 49.5454L12.5133 48.5098C12.3956 47.6272 13.0072 46.8034 13.8893 46.6857L14.0892 46.6621C14.9713 46.5444 15.7945 47.1564 15.9121 48.0391L16.0533 49.0747C16.1709 49.9573 15.5593 50.7811 14.6772 50.8988Z" fill="#F99746"/>
<path d="M38.0225 88.264C38.0225 88.264 42.1505 88.0286 42.5504 88.2405C43.1972 88.5935 45.42 90.0175 45.7611 90.4294C46.1139 90.8413 47.0195 92.5125 47.0195 92.5125C47.0195 92.5125 46.6314 92.6184 46.4432 92.4654C46.2668 92.3007 44.9143 90.8767 44.9143 90.8767L46.3021 92.9832C46.3021 92.9832 45.8199 92.9597 45.6317 92.7478C45.4436 92.536 44.1499 91.2297 44.1499 91.2297L43.7147 91.1473C43.7147 91.1473 44.1616 91.5122 44.4086 91.8299C44.6556 92.1594 44.8085 92.5007 44.8085 92.5007C44.8085 92.5007 44.4086 92.4301 44.291 92.3713C44.1734 92.3124 43.0091 91.3003 43.0091 91.3003L43.6206 92.1359C43.6206 92.1359 43.209 92.1123 43.0679 92.0182C42.9267 91.924 42.0329 91.0885 41.8683 91.1002C41.7036 91.1002 40.5511 91.0532 40.0571 90.7943C39.5632 90.5354 38.0107 89.9352 38.0107 89.9352L38.0225 88.264Z" fill="#FFB27D"/>
<path d="M12.5487 59.6902C12.5487 59.6902 9.78494 60.4904 9.16162 61.1259C9.16162 61.1259 12.043 68.5048 16.2063 71.953L17.3236 71.1645V72.9533L21.4869 75.6836C21.4751 75.6836 12.337 61.9262 12.5487 59.6902Z" fill="url(#paint2_linear)"/>
<path d="M25.2271 86.9108C24.1568 90.9121 22.3692 94.2779 22.2986 94.3956H23.7099H22.2986H9.16184C9.16184 94.3956 10.6907 94.3956 10.679 94.3838C10.6437 94.2544 12.9018 88.1229 9.16184 85.6162C5.41015 83.0978 4.0459 76.9193 4.0459 76.9193L15.9831 74.0007C15.9831 74.0007 20.8991 81.1795 22.2986 82.5564C23.3689 83.6038 25.8739 83.6862 25.8739 83.6862L25.2271 86.9108Z" fill="url(#paint3_linear)"/>
<path d="M21.2517 60.9141C21.2517 60.9141 22.5219 70.9527 21.4752 75.6836C21.4752 75.6836 23.1805 72.5532 23.4157 71.9765L23.1334 70.2583L24.2272 70.6467C24.2272 70.6467 23.2628 62.644 22.3808 61.2436C21.4987 59.8431 21.1812 59.7019 21.1812 59.7019L21.2517 60.9141Z" fill="url(#paint4_linear)"/>
<path d="M58.2749 91.736C58.2749 91.736 52.9473 91.936 47.749 91.9125C46.4553 89.9119 48.043 87.5111 48.043 87.5111C52.5474 88.3349 57.3928 89.1116 57.3928 89.1116L58.2749 91.736Z" fill="#FFB27D"/>
<path d="M58.7805 94.4075H39.1047C39.1047 93.5366 39.8104 92.8423 40.6689 92.8423H58.7805V94.4075Z" fill="#1D71B8"/>
<path d="M89.1467 72.965L81.8433 94.4073H51.23L58.7216 72.965H89.1467Z" fill="#264FA3"/>
<path d="M89.1466 72.965L81.9137 94.2072L81.8432 94.4073H51.6768L59.1684 72.965H89.1466Z" fill="#1D71B8"/>
<path d="M73.1873 83.4861C72.9992 84.3099 72.1759 84.969 71.3644 84.969C70.5411 84.969 70.0354 84.3099 70.2236 83.4861C70.4118 82.6623 71.235 82.0033 72.0465 82.0033C72.8698 82.0033 73.3755 82.6623 73.1873 83.4861Z" fill="#F3911C"/>
<path d="M89.1466 72.965L81.9138 94.2072H68.0479L84.9481 72.965H89.1466Z" fill="#264FA3"/>
<path d="M38.0227 89.9353C38.0227 89.9353 27.8967 90.8179 22.2986 90.5708V85.0631C25.9679 86.0752 38.0227 88.2641 38.0227 88.2641V89.9353Z" fill="#FFB27D"/>
<path d="M9.16169 61.1376C9.16169 61.1376 3.37538 61.267 1.57598 63.2088C-0.211656 65.1506 3.35186 76.0954 3.35186 76.0954C3.35186 76.0954 14.1483 89.3232 19.5465 90.2529C19.5465 90.2529 21.9104 90.5707 23.0041 90.5942C23.0041 90.5942 21.9221 87.452 23.9332 85.4749C23.9332 85.4749 21.6164 84.8276 21.5223 84.5452C21.44 84.251 9.16169 61.1376 9.16169 61.1376Z" fill="url(#paint5_linear)"/>
<path d="M251.186 36.3898C251.186 36.3898 245.318 34.2009 241.66 38.4964C239.555 40.956 226.124 66.5879 226.277 68.8357C226.442 71.0835 227.724 72.2015 227.724 72.2015C227.724 72.2015 227.159 70.2361 227.582 69.2123C227.582 69.2123 227.312 72.6722 229.441 74.1433C230.546 74.9082 258.207 73.4137 260.618 70.0596C265.84 62.7749 254.432 58.9972 254.714 51.124C254.879 46.5461 259.36 36.8488 251.186 36.3898Z" fill="#1D71B8"/>
<path d="M256.773 52.7129L256.385 52.7953C254.632 53.1484 252.915 52.0068 252.563 50.2533L252.151 48.1938C251.798 46.4403 252.939 44.7221 254.691 44.3691L255.079 44.2867C256.832 43.9336 258.549 45.0752 258.902 46.8287L259.313 48.8882C259.666 50.6417 258.525 52.3599 256.773 52.7129Z" fill="#ED7D2B"/>
<path d="M281.87 94.5499H263.524C260.407 89.6071 257.679 82.9226 257.032 77.7327C256.726 75.2613 256.902 73.1312 257.726 71.6719C260.289 67.141 256.22 61.8217 256.22 61.8217C256.22 61.8217 261.818 63.4104 263.124 68.0237C264.453 72.7311 268.004 88.3832 268.004 88.3832L281.635 91.1841C282.27 92.7964 281.87 94.5499 281.87 94.5499Z" fill="#F3911C"/>
<path d="M281.87 94.55H263.523C260.407 89.6072 257.678 82.9227 257.031 77.7328L259.748 76.8972C259.748 76.8972 263.194 92.6318 265.193 92.8671C267.205 93.1143 281.87 94.55 281.87 94.55Z" fill="#ED7D2B"/>
<path d="M258.937 69.271C257.526 70.5067 255.714 71.5894 253.374 72.425C244.601 75.5319 240.284 68.2942 238.403 63.2102C239.555 62.3629 240.696 62.0804 241.355 61.9274C242.001 61.7744 242.672 61.645 243.236 61.5508C244.165 60.6564 245.306 57.3142 245.083 52.3478L245.518 52.4184L252.833 53.56C252.833 53.56 252.763 55.8549 252.845 58.0085C252.915 59.6914 253.068 61.2919 253.433 61.645C253.997 61.7038 254.338 61.7391 254.338 61.7391C254.338 61.7391 254.338 61.7391 254.338 61.7509C254.456 61.9039 256.902 65.0578 258.937 69.271Z" fill="#FFB27D"/>
<path d="M252.833 53.5604C252.833 53.5604 252.762 55.8552 252.845 58.0089C248.775 58.0559 246.482 54.443 245.518 52.4189L252.833 53.5604Z" fill="#ED985F"/>
<path d="M262.418 76.8972C262.394 77.0502 260.442 83.417 260.418 83.5818C259.736 88.9129 258.513 94.5972 258.513 94.5972H255.82L238.085 94.5618C238.085 94.5618 240.225 88.1009 234.58 78.1918C234.392 77.8623 234.204 77.5445 234.004 77.2032C233.204 75.8851 238.273 61.7629 238.273 61.7629C238.273 61.7629 240.496 61.3745 243.612 61.1156C243.906 61.3863 246.07 69.3065 249.987 69.5419C255.103 69.8596 253.162 61.0332 253.162 61.0332C255.244 61.4569 255.996 61.6099 258.666 62.8809C258.666 62.8809 262.524 76.0264 262.418 76.8972Z" fill="#F3911C"/>
<path d="M254.174 55.6664C254.174 55.6664 244.554 56.0666 244.401 50.0764C244.248 44.0862 242.895 40.0967 249.023 39.5789C255.15 39.0728 256.409 41.3206 256.95 43.3095C257.491 45.2984 256.667 55.4075 254.174 55.6664Z" fill="#FFB27D"/>
<path d="M252.08 52.4543C252.08 52.4543 252.186 53.1723 253.762 53.184C253.762 53.184 255.091 53.1958 255.103 52.419C255.103 52.419 253.856 51.7717 252.08 52.4543Z" fill="white"/>
<path d="M252.75 54.8314C247.188 53.4427 245.529 48.3587 245.518 48.2999L246.094 48.1234L245.812 48.2175L246.094 48.1234C246.106 48.1704 247.67 52.9367 252.903 54.243C252.939 54.2548 252.974 54.2548 253.009 54.2665L252.868 54.855C252.821 54.855 252.786 54.8432 252.75 54.8314Z" fill="#122544"/>
<path d="M253.386 55.2078L252.857 55.0784C252.586 55.0078 252.421 54.7371 252.492 54.4664C252.562 54.1958 252.833 54.031 253.104 54.1016L253.633 54.2311C253.903 54.3017 254.068 54.5724 253.997 54.843C253.927 55.1019 253.656 55.2667 253.386 55.2078Z" fill="#2C3A64"/>
<path d="M248.729 35.8487C248.729 35.8487 254.915 34.8837 257.479 40.0383C259.431 43.969 257.808 46.4169 257.044 47.1701C257.044 47.1701 256.032 41.5329 254.139 41.0504C254.139 41.0504 252.916 40.6738 252.092 41.6506C251.257 42.6157 250.058 46.9347 248.67 47.5938C248.67 47.5938 244.377 48.6529 244.166 47.1583C243.954 45.6637 244.071 40.9916 245.153 40.2502C246.235 39.4852 248.729 35.8487 248.729 35.8487Z" fill="#1D71B8"/>
<path d="M246.765 52.7127L246.377 52.7951C244.624 53.1481 242.907 52.0066 242.554 50.2531L242.143 48.1936C241.79 46.4401 242.931 44.7219 244.683 44.3688L245.071 44.2864C246.823 43.9334 248.54 45.0749 248.893 46.8284L249.305 48.8879C249.658 50.6414 248.517 52.3596 246.765 52.7127Z" fill="#ED7D2B"/>
<path d="M243.707 45.3104C243.448 44.8868 243.06 41.4386 244.107 38.7083C244.612 37.3902 245.436 36.6252 246.471 36.1192C246.847 35.9309 247.259 35.8367 247.682 35.8367L248.717 35.8485C245.306 37.143 244.518 44.0983 244.777 44.8397C244.765 44.8162 244.754 44.8044 244.754 44.7926L243.707 45.3104Z" fill="#ED7D2B"/>
<path d="M245.847 50.7006L245.647 50.7359C244.777 50.9124 243.918 50.3476 243.742 49.4649L243.53 48.441C243.354 47.5701 243.918 46.711 244.8 46.5345L245 46.4992C245.871 46.3227 246.729 46.8876 246.906 47.7702L247.117 48.7941C247.282 49.665 246.717 50.5241 245.847 50.7006Z" fill="#F3911C"/>
<path d="M238.097 94.5503C238.097 94.5503 240.237 88.0894 234.592 78.1803L236.697 75.5559C236.697 75.5559 240.413 86.1005 245.071 89.1838C249.716 92.2554 255.173 91.6081 255.832 94.5856L238.097 94.5503Z" fill="#ED7D2B"/>
<path d="M238.273 61.7515C238.273 61.7515 234.451 62.0811 231.887 66.6119C229.323 71.1428 224.454 88.0778 224.454 94.5387H244.941C244.941 94.5387 245.341 92.7734 244.706 91.1729L232.028 88.725C232.028 88.725 239.661 77.3919 239.743 72.4962C239.814 67.624 238.273 61.7515 238.273 61.7515Z" fill="#F3911C"/>
<path d="M245.059 92.4667C245.059 92.4667 249.046 92.0783 249.716 92.2548C250.387 92.4314 252.268 93.2199 252.692 93.4905C253.115 93.7612 253.927 94.5497 253.927 94.5497C253.927 94.5497 253.421 94.6438 253.115 94.5732C252.809 94.5026 251.916 94.4438 251.669 94.4202C251.433 94.3967 250.563 94.5732 250.563 94.5732H244.377L245.059 92.4667Z" fill="#FFB27D"/>
<path d="M281.212 94.597H261.536C261.536 93.7261 262.242 93.0318 263.1 93.0318H281.2V94.597H281.212Z" fill="url(#paint6_linear)"/>
<path d="M311.567 73.1545L304.275 94.5968H273.662L281.153 73.1545H311.567Z" fill="url(#paint7_linear)"/>
<path d="M311.567 73.1545L304.334 94.3967L304.275 94.5968H274.109L281.6 73.1545H311.567Z" fill="url(#paint8_linear)"/>
<path d="M295.619 83.6751C295.43 84.4989 294.607 85.158 293.796 85.158C292.973 85.158 292.467 84.4989 292.655 83.6751C292.843 82.8513 293.666 82.1923 294.478 82.1923C295.289 82.1923 295.807 82.8513 295.619 83.6751Z" fill="#F3911C"/>
<path d="M311.567 73.1545L304.334 94.3968H290.48L307.38 73.1545H311.567Z" fill="url(#paint9_linear)"/>
<defs>
<linearGradient id="paint0_linear" x1="0" y1="77.658" x2="58.2747" y2="77.658" gradientUnits="userSpaceOnUse">
<stop stop-color="white"/>
<stop offset="1" stop-color="#36A9E1"/>
</linearGradient>
<linearGradient id="paint1_linear" x1="26.5442" y1="84.7532" x2="49.4186" y2="84.7532" gradientUnits="userSpaceOnUse">
<stop stop-color="#B5D6F4"/>
<stop offset="1" stop-color="#36A9E1"/>
</linearGradient>
<linearGradient id="paint2_linear" x1="9.16162" y1="67.6887" x2="21.4869" y2="67.6887" gradientUnits="userSpaceOnUse">
<stop stop-color="#B5D6F4"/>
<stop offset="1" stop-color="#36A9E1"/>
</linearGradient>
<linearGradient id="paint3_linear" x1="4.0459" y1="84.2004" x2="25.8739" y2="84.2004" gradientUnits="userSpaceOnUse">
<stop stop-color="#B5D6F4"/>
<stop offset="1" stop-color="#36A9E1"/>
</linearGradient>
<linearGradient id="paint4_linear" x1="21.1812" y1="67.6946" x2="24.2272" y2="67.6946" gradientUnits="userSpaceOnUse">
<stop stop-color="#B5D6F4"/>
<stop offset="1" stop-color="#36A9E1"/>
</linearGradient>
<linearGradient id="paint5_linear" x1="1.07422" y1="75.8692" x2="23.9332" y2="75.8692" gradientUnits="userSpaceOnUse">
<stop stop-color="white"/>
<stop offset="1" stop-color="#36A9E1"/>
</linearGradient>
<linearGradient id="paint6_linear" x1="261.536" y1="93.8146" x2="281.212" y2="93.8146" gradientUnits="userSpaceOnUse">
<stop stop-color="white"/>
<stop offset="1" stop-color="#36A9E1"/>
</linearGradient>
<linearGradient id="paint7_linear" x1="279.713" y1="82.8255" x2="311.567" y2="83.8781" gradientUnits="userSpaceOnUse">
<stop stop-color="white"/>
<stop offset="1" stop-color="#36A9E1"/>
</linearGradient>
<linearGradient id="paint8_linear" x1="274.109" y1="83.8781" x2="311.567" y2="83.8781" gradientUnits="userSpaceOnUse">
<stop stop-color="white"/>
<stop offset="1" stop-color="#36A9E1"/>
</linearGradient>
<linearGradient id="paint9_linear" x1="290.48" y1="83.7781" x2="311.567" y2="83.7781" gradientUnits="userSpaceOnUse">
<stop stop-color="white"/>
<stop offset="1" stop-color="#36A9E1"/>
</linearGradient>
</defs>
</svg>
