<svg width="18" height="30" viewBox="0 0 18 30" fill="none" xmlns="http://www.w3.org/2000/svg">
<path fill-rule="evenodd" clip-rule="evenodd" d="M17.6739 6.81818C17.6739 7.63636 17.1301 8.18182 16.3144 8.18182H12.2358V10.9091H16.3144C16.7223 10.9091 17.1301 10.9091 17.402 11.3182C17.6739 11.7273 17.8099 12.1364 17.6739 12.5455L16.3144 18C16.1784 18.6818 15.6346 19.0909 14.9549 19.0909H12.2358V28.6364C12.2358 29.4545 11.692 30 10.8763 30H5.43813C4.62241 30 4.0786 29.4545 4.0786 28.6364V19.0909H1.35953C0.543813 19.0909 0 18.5455 0 17.7273V12.2727C0 11.4545 0.543813 10.9091 1.35953 10.9091H4.0786V8.18182C4.0786 3.68182 7.74934 0 12.2358 0H16.3144C17.1301 0 17.6739 0.545455 17.6739 1.36364V6.81818ZM14.5469 13.6364H10.8762C10.0604 13.6364 9.51662 13.0909 9.51662 12.2727V8.18182C9.51662 6.68182 10.7402 5.45455 12.2357 5.45455H14.9548V2.72727H12.2357C9.24471 2.72727 6.79755 5.18182 6.79755 8.18182V12.2727C6.79755 13.0909 6.25374 13.6364 5.43802 13.6364H2.71895V16.3636H5.43802C6.25374 16.3636 6.79755 16.9091 6.79755 17.7273V27.2727H9.51662V17.7273C9.51662 16.9091 10.0604 16.3636 10.8762 16.3636H13.8671L14.5469 13.6364Z" fill="url(#paint0_linear)"/>
<defs>
<linearGradient id="paint0_linear" x1="8.86364" y1="0" x2="8.86364" y2="30" gradientUnits="userSpaceOnUse">
<stop stop-color="#17ACFE"/>
<stop offset="1" stop-color="#0166DF"/>
</linearGradient>
</defs>
</svg>
