<svg width="21" height="26" viewBox="0 0 21 26" fill="none" xmlns="http://www.w3.org/2000/svg">
<path fill-rule="evenodd" clip-rule="evenodd" d="M0 10.5C0 4.725 4.725 0 10.5 0C16.275 0 21 4.725 21 10.5C21 18.27 11.445 24.78 11.13 24.99C10.92 25.095 10.71 25.2 10.5 25.2C10.29 25.2 10.08 25.095 9.87 24.99C9.555 24.78 0 18.27 0 10.5ZM2.10015 10.5002C2.10015 16.1702 8.50515 21.4202 10.5002 22.8902C12.4952 21.4202 18.9002 16.1702 18.9002 10.5002C18.9002 5.88015 15.1202 2.10015 10.5002 2.10015C5.88015 2.10015 2.10015 5.88015 2.10015 10.5002ZM10.5001 6.30008C8.19008 6.30008 6.30008 8.19008 6.30008 10.5001C6.30008 12.8101 8.19008 14.7001 10.5001 14.7001C12.8101 14.7001 14.7001 12.8101 14.7001 10.5001C14.7001 8.19008 12.8101 6.30008 10.5001 6.30008ZM8.39985 10.4998C8.39985 11.6548 9.34485 12.5998 10.4998 12.5998C11.6548 12.5998 12.5998 11.6548 12.5998 10.4998C12.5998 9.34485 11.6548 8.39985 10.4998 8.39985C9.34485 8.39985 8.39985 9.34485 8.39985 10.4998Z" fill="#C4ACD4"/>
</svg>
