<svg width="1555" height="837" viewBox="0 0 1555 837" fill="none" xmlns="http://www.w3.org/2000/svg">
<path d="M336.189 522.821L226.219 576.002V467.768L336.189 413.463V522.821Z" fill="#1D71B8"/>
<path d="M445.97 576.376L445.783 576.564L407.003 595.664L391.453 603.341L336 630.681L226.03 576.564V576.376L336 522.259L391.641 549.598L406.816 557.089L445.783 576.376H445.97Z" fill="url(#paint0_linear)"/>
<path d="M1504.46 513.833L1510.83 539.112L1529.56 520.387L1522.25 545.479L1547.92 538.363L1528.62 556.34L1554.66 562.707L1528.62 569.074L1547.92 587.237L1522.25 579.934L1529.56 605.027L1510.83 586.301L1504.46 611.581L1497.9 586.301L1479.35 605.027L1486.66 579.934L1460.99 587.237L1480.1 569.074L1454.25 562.707L1480.1 556.34L1460.99 538.363L1486.66 545.479L1479.35 520.387L1497.9 539.112L1504.46 513.833Z" fill="#F3911C"/>
<path d="M1210.33 2.43433C1210.33 3.74513 1209.2 4.86867 1207.89 4.86867C1206.58 4.86867 1205.46 3.74513 1205.46 2.43433C1205.46 1.12353 1206.58 0 1207.89 0C1209.2 0 1210.33 1.12353 1210.33 2.43433Z" fill="white"/>
<path d="M389.02 574.692C389.02 575.441 388.832 576.377 388.645 577.126C386.397 570.572 374.594 564.954 358.483 562.333C351.364 561.209 343.495 560.46 335.065 560.46C331.131 560.46 327.384 560.647 323.824 560.835C301.531 562.52 284.295 569.074 281.485 577.126C281.298 576.377 281.11 575.628 281.11 574.692C281.11 565.516 299.47 557.839 323.824 555.966C327.384 555.592 331.318 555.592 335.065 555.592C343.495 555.592 351.364 556.341 358.483 557.464C376.468 560.46 389.02 567.014 389.02 574.692Z" fill="#1D71B8"/>
<path d="M388.463 576.377C385.278 585.365 364.483 592.481 338.817 593.043C337.506 593.043 336.194 593.043 334.883 593.043C307.344 593.043 284.675 585.74 281.303 576.377C284.113 568.325 301.349 561.771 323.642 560.085C327.202 559.711 331.136 559.711 334.883 559.711C343.313 559.711 351.182 560.46 358.301 561.584C374.412 564.392 386.215 569.823 388.463 576.377Z" fill="black"/>
<path d="M362.054 532.746C352.687 527.128 346.692 519.263 345.194 511.96C347.629 508.402 351.001 505.593 354.935 503.721C360.743 501.099 367.675 500.725 374.044 502.972C375.543 503.534 377.042 504.283 378.353 505.032C378.541 505.219 378.915 505.406 379.103 505.406C389.594 512.335 392.591 526.004 385.66 536.304C384.91 537.24 384.348 538.176 383.411 539.112C377.042 539.3 369.173 537.053 362.054 532.746Z" fill="#81CCDA"/>
<path d="M352.685 543.232C343.505 537.614 339.758 527.315 342.568 517.952C344.442 524.881 350.25 532.184 359.055 537.427C365.237 541.172 371.981 543.232 377.976 543.606C370.295 547.913 360.553 548.1 352.685 543.232Z" fill="#81CCDA"/>
<path d="M362.054 532.746C352.687 527.128 346.692 519.263 345.194 511.96C347.629 508.402 351.001 505.593 354.935 503.721L374.044 502.972C375.73 503.721 377.416 504.47 379.103 505.406C389.594 512.335 392.591 526.004 385.66 536.303C384.91 537.24 384.348 538.176 383.411 539.112C377.042 539.3 369.173 537.052 362.054 532.746Z" fill="#81CCDA"/>
<path d="M362.054 532.746C352.687 527.128 346.692 519.263 345.194 511.96C347.629 508.402 351.001 505.593 354.935 503.721L374.044 502.972C375.543 503.533 377.042 504.282 378.353 505.032C378.541 505.219 378.915 505.406 379.103 505.406C389.594 512.335 392.591 526.004 385.66 536.303C384.91 537.24 384.348 538.176 383.411 539.112C377.042 539.3 369.173 537.052 362.054 532.746Z" fill="#81CCDA"/>
<path d="M325.146 573.755L322.148 571.321C318.214 568.324 317.465 562.894 320.462 559.523L334.138 536.865C337.136 533.495 344.817 537.802 348.564 540.985L351.561 543.419C355.495 546.415 361.116 552.408 358.118 555.778L337.51 573.006C334.7 576.564 329.08 576.751 325.146 573.755Z" fill="#81CCDA"/>
<path d="M339.006 565.516V592.106C337.695 592.106 336.384 592.106 335.072 592.106V565.328H339.006V565.516Z" fill="#81CCDA"/>
<path d="M355.873 508.59C356.805 508.59 357.559 507.835 357.559 506.904C357.559 505.974 356.805 505.219 355.873 505.219C354.942 505.219 354.187 505.974 354.187 506.904C354.187 507.835 354.942 508.59 355.873 508.59Z" fill="white"/>
<path d="M359.248 514.769C360.18 514.769 360.934 514.015 360.934 513.084C360.934 512.153 360.18 511.398 359.248 511.398C358.317 511.398 357.562 512.153 357.562 513.084C357.562 514.015 358.317 514.769 359.248 514.769Z" fill="white"/>
<path d="M366.175 522.072C367.107 522.072 367.861 521.318 367.861 520.387C367.861 519.456 367.107 518.702 366.175 518.702C365.244 518.702 364.489 519.456 364.489 520.387C364.489 521.318 365.244 522.072 366.175 522.072Z" fill="white"/>
<path d="M374.226 527.877C375.157 527.877 375.912 527.123 375.912 526.192C375.912 525.261 375.157 524.507 374.226 524.507C373.295 524.507 372.54 525.261 372.54 526.192C372.54 527.123 373.295 527.877 374.226 527.877Z" fill="white"/>
<path d="M362.616 508.59C363.547 508.59 364.302 507.835 364.302 506.904C364.302 505.974 363.547 505.219 362.616 505.219C361.684 505.219 360.929 505.974 360.929 506.904C360.929 507.835 361.684 508.59 362.616 508.59Z" fill="white"/>
<path d="M367.865 514.769C368.796 514.769 369.551 514.015 369.551 513.084C369.551 512.153 368.796 511.398 367.865 511.398C366.934 511.398 366.179 512.153 366.179 513.084C366.179 514.015 366.934 514.769 367.865 514.769Z" fill="white"/>
<path d="M374.226 520.387C375.157 520.387 375.912 519.632 375.912 518.702C375.912 517.771 375.157 517.016 374.226 517.016C373.295 517.016 372.54 517.771 372.54 518.702C372.54 519.632 373.295 520.387 374.226 520.387Z" fill="white"/>
<path d="M369.546 508.59C370.478 508.59 371.233 507.835 371.233 506.904C371.233 505.974 370.478 505.219 369.546 505.219C368.615 505.219 367.86 505.974 367.86 506.904C367.86 507.835 368.615 508.59 369.546 508.59Z" fill="white"/>
<path d="M583.294 262.347L523.531 391.554" stroke="#F3911C" stroke-width="8" stroke-miterlimit="10"/>
<path d="M159.895 835.727C159.895 835.915 159.895 836.102 160.082 836.476H159.145C159.52 836.289 159.707 836.102 159.895 835.727Z" fill="#C4ACD4"/>
<path d="M169.826 836.476H169.078C169.078 836.289 169.078 836.102 169.265 835.915C169.452 836.102 169.639 836.289 169.826 836.476Z" fill="#C4ACD4"/>
<path d="M340.687 723.561C335.629 731.051 337.502 735.358 337.689 735.732C337.127 735.358 322.327 720.752 332.818 709.142H333.193C333.193 708.955 333.193 708.955 333.193 708.767C333.006 708.955 333.006 708.955 332.818 709.142H332.631C331.132 709.142 330.008 707.831 330.008 706.146C330.008 705.397 330.383 704.648 330.758 704.086C331.132 703.711 331.694 703.337 332.256 703.337C330.945 694.723 330.383 684.986 330.383 675.061C330.383 658.395 332.444 643.04 335.816 630.869C338.813 642.853 340.687 658.021 340.499 674.312C340.499 684.799 339.563 694.536 338.251 703.524C339.563 703.712 340.687 705.022 340.687 706.52C340.687 707.269 340.312 708.018 339.937 708.58C339.375 709.142 338.813 709.516 338.064 709.516H337.502C337.502 709.329 337.315 709.329 337.315 709.142C337.315 709.329 337.315 709.329 337.315 709.329H337.689C340.312 712.325 344.434 718.318 340.687 723.561Z" fill="url(#paint1_linear)"/>
<path d="M159.895 835.727C159.895 835.915 159.895 836.102 160.082 836.476H159.145C159.52 836.289 159.707 836.102 159.895 835.727Z" fill="#C4ACD4"/>
<path d="M169.826 836.476H169.078C169.078 836.289 169.078 836.102 169.265 835.915C169.452 836.102 169.639 836.289 169.826 836.476Z" fill="#C4ACD4"/>
<path d="M657.104 267.403L657.478 353.354L748.527 399.044L747.59 312.906L657.104 267.403Z" fill="black"/>
<path d="M1050.53 147.559V256.729L1046.97 258.415L1044.91 259.351L1030.85 266.092C1026.55 265.905 1021.68 267.59 1016.05 271.335H1015.87C1015.31 271.71 1014.56 272.272 1013.81 273.021C1013.43 272.084 1012.5 272.084 1011.56 272.646L998.257 281.634L991.326 285.005L954.794 302.607L941.118 309.348L940.181 309.723V201.489L956.855 193.249L973.528 185.01L995.635 174.149L1011.18 166.472L1050.53 147.559Z" fill="#F3911C"/>
<path d="M940.368 201.863V310.097L937.371 308.599L830.21 256.729V147.559L940.368 201.863Z" fill="url(#paint2_linear)"/>
<path d="M864.116 707.643H863.929L758.455 759.701L652.981 707.643H652.793L652.981 707.456L758.455 655.586L863.929 707.456L864.116 707.643Z" fill="#1D71B8"/>
<path d="M1050.53 147.558L1011.56 166.658L996.009 174.336L973.902 185.197C973.715 184.073 973.902 182.201 973.902 180.515C974.09 175.834 974.464 169.842 970.343 169.654C967.907 169.467 965.284 171.34 963.036 174.898C959.664 180.328 957.416 188.755 957.041 193.436L940.368 201.675L830.398 147.371H830.21H830.398L886.226 119.844C897.279 118.533 919.386 114.039 930.064 108.983C943.74 102.429 939.244 99.9949 939.244 99.9949L914.702 105.987L940.368 93.4409L996.009 120.78L1011.18 128.271L1050.53 147.558Z" fill="#1D71B8"/>
<path d="M866.93 360.282L756.772 413.463V305.229L866.93 250.924V360.282Z" fill="#81CCDA"/>
<path d="M973.903 180.516C973.903 182.388 973.716 184.073 973.903 185.197L957.229 193.436C957.604 188.755 959.852 180.328 963.037 174.898C965.285 171.34 967.908 169.467 970.343 169.655C974.465 170.029 974.09 175.834 973.903 180.516Z" fill="#F3911C"/>
<path d="M1046.97 258.414L1044.91 259.351L1030.86 266.092C1026.73 265.904 1021.68 267.59 1016.06 271.335H1015.87C1015.31 271.709 1014.56 272.271 1013.81 273.02C1013.43 272.084 1012.5 272.084 1011.56 272.646L998.258 281.634L994.886 283.881C994.137 284.443 993.387 285.192 993.013 286.128C992.451 285.754 991.889 285.379 991.514 284.817L954.982 302.42C955.919 298.674 956.856 294.929 957.792 291.371C965.099 264.594 970.344 241.561 964.537 222.835C963.787 220.401 962.851 218.154 961.914 215.72C959.478 209.54 957.043 202.986 957.043 194.372C957.043 193.998 957.043 193.436 957.043 192.874L973.716 184.635C973.716 184.635 973.716 184.822 973.716 185.01C974.841 191.376 977.463 196.058 981.21 198.305C984.395 200.177 987.58 198.679 990.952 197.181C992.451 196.432 994.137 195.683 995.636 195.496C998.258 194.934 1000.69 195.309 1002.75 198.305C1003.5 199.428 1004.25 200.552 1005 201.863C1006.88 205.046 1008.56 207.855 1011.56 207.48C1012.12 207.48 1012.87 207.106 1013.62 206.731C1014.74 206.17 1015.87 205.233 1017.37 203.922C1020.93 200.365 1022.05 197.743 1023.55 192.5C1023.92 191.376 1024.11 188.942 1024.3 186.695C1024.86 181.452 1025.24 177.894 1026.55 176.396C1028.98 173.4 1031.42 173.025 1033.67 175.272C1036.85 178.83 1038.91 187.818 1038.54 191.002C1038.16 195.496 1037.04 200.177 1035.91 204.859C1034.23 211.413 1032.73 217.779 1033.48 223.21C1033.85 225.832 1035.73 228.828 1037.79 232.198C1041.35 238.752 1046.03 246.43 1046.97 258.414Z" fill="#81CCDA"/>
<path d="M1044.9 259.538L1030.85 266.279C1026.73 266.092 1021.67 267.777 1016.05 271.522H1015.86C1015.3 271.897 1014.55 272.459 1013.8 273.208C1013.43 272.271 1012.49 272.271 1011.56 272.833L998.255 281.821L994.882 284.068C994.133 284.63 993.384 285.379 993.009 286.316C992.447 285.941 991.885 285.567 991.51 285.005C989.45 282.196 989.45 276.765 991.136 270.399C991.698 268.152 992.26 266.092 992.447 264.219C994.695 252.422 991.51 233.322 991.51 233.322C990.948 230.513 990.012 227.704 988.888 224.895C987.201 220.214 984.953 208.978 990.948 207.106C992.447 206.731 993.946 206.357 995.632 206.17C996.007 206.17 996.569 205.982 996.943 205.982C998.442 205.982 999.753 205.982 1001.06 205.608C1002 205.233 1002.94 205.046 1003.87 204.672C1005.94 208.042 1007.81 211.226 1011.37 210.477C1012.12 210.289 1012.87 210.102 1013.62 209.54C1014.93 208.791 1016.24 207.855 1017.74 206.357C1021.67 202.424 1023.17 199.054 1024.86 193.249C1025.23 191.751 1025.42 189.504 1025.79 186.695C1025.98 184.261 1026.36 179.579 1027.11 178.643C1027.67 177.894 1028.23 177.519 1028.79 177.145C1029.92 176.583 1030.85 176.958 1031.98 178.081C1034.97 181.264 1036.66 189.691 1036.47 192.125C1036.1 196.245 1034.97 200.739 1034.04 205.233C1032.35 211.787 1030.85 218.716 1031.6 224.708C1031.98 227.704 1033.85 230.7 1036.1 234.445C1039.47 240.625 1043.97 247.928 1044.9 259.538Z" fill="white"/>
<path d="M1019.42 238.94C1019.42 239.689 1018.49 240.625 1017.36 241.374L1004.06 249.052C1002.94 249.801 1002 249.801 1002 249.052V245.681C1002 244.932 1002.94 243.808 1004.06 243.247L1017.36 235.756C1018.49 235.195 1019.42 235.195 1019.42 235.756V238.94Z" fill="#1D71B8" stroke="#FFFAFB" stroke-width="1.2502" stroke-miterlimit="10"/>
<path d="M1019.42 248.49C1019.42 249.239 1018.49 250.175 1017.36 250.924L1004.06 259.163C1002.94 259.912 1002 259.912 1002 259.163V255.793C1002 255.044 1002.94 253.92 1004.06 253.358L1017.36 245.306C1018.49 244.557 1019.42 244.557 1019.42 245.306V248.49Z" fill="#1D71B8" stroke="#FFFAFB" stroke-width="1.2502" stroke-miterlimit="10"/>
<path d="M1020.54 263.47L1003.31 275.08V264.219L1020.54 252.984V263.47Z" fill="#1D71B8" stroke="#FFFAFB" stroke-width="1.2502" stroke-miterlimit="10"/>
<path d="M972.968 121.904C970.719 136.136 961.914 149.056 948.051 156.172C934.187 163.101 918.451 162.352 905.711 155.61C907.96 141.379 916.765 128.458 930.628 121.53C944.491 114.414 960.228 115.163 972.968 121.904Z" fill="white" stroke="#81CCDA" stroke-width="1.98" stroke-miterlimit="10"/>
<path d="M939.428 147.933C944.498 147.933 948.608 143.825 948.608 138.757C948.608 133.69 944.498 129.582 939.428 129.582C934.358 129.582 930.248 133.69 930.248 138.757C930.248 143.825 934.358 147.933 939.428 147.933Z" fill="#81CCDA"/>
<path d="M965.471 110.107C965.471 110.107 999.567 103.553 1015.3 110.107C1031.04 116.661 993.759 115.912 994.883 129.581C996.007 143.251 963.41 111.605 963.41 111.605L965.471 110.107Z" fill="#1D71B8"/>
<path d="M933.62 177.332C935.483 177.332 936.993 175.823 936.993 173.961C936.993 172.1 935.483 170.591 933.62 170.591C931.758 170.591 930.248 172.1 930.248 173.961C930.248 175.823 931.758 177.332 933.62 177.332Z" fill="white" stroke="#81CCDA" stroke-width="1.98" stroke-miterlimit="10"/>
<path d="M866.742 250.924L827.775 270.212L812.225 277.889L756.772 305.229L646.989 250.924H646.802H646.989L756.772 196.807L812.412 224.146L827.587 231.637L866.742 250.924Z" fill="url(#paint3_linear)"/>
<path d="M892.025 579.934L1000.87 632.179V528.813L891.276 479.19L892.025 579.934Z" fill="#36A9E1"/>
<path d="M945.049 513.271V511.398H943.175V563.081C942.426 562.332 941.489 561.77 940.552 561.396C939.054 560.834 937.555 560.647 936.056 560.647C932.872 560.647 929.874 561.583 927.251 563.081C924.628 564.579 922.38 566.826 921.069 569.448C919.758 571.882 919.195 574.878 920.882 577.313C922.568 579.747 925.752 580.683 928.75 580.683C931.935 580.683 934.932 579.934 937.555 578.436C940.178 576.938 942.426 574.878 943.737 572.257C944.487 570.946 944.861 569.635 944.861 568.137C944.861 567.95 944.861 567.763 944.861 567.575V524.506C949.17 533.495 964.907 524.881 966.406 551.097C968.279 511.024 957.226 530.873 945.049 513.271Z" fill="white"/>
<path d="M1030.48 400.542L1030.1 501.474L920.697 451.851V350.17L997.133 385.374L1030.48 400.542Z" fill="#C4ACD4"/>
<path d="M1139.89 350.17H1139.7L1030.48 400.542L956.478 366.462L921.257 350.17H921.07V349.983H921.257L1031.41 297.364L1139.7 349.983L1139.89 350.17Z" fill="#C4ACD4"/>
<path d="M1088.74 367.211C1060.82 381.068 1050.71 388.558 1019.05 393.801C1018.11 393.801 1027.66 402.228 1027.66 403.164C1027.66 403.164 1028.41 416.272 1028.79 419.643C1034.22 483.123 1071.88 507.279 1097.73 490.613L1088.74 367.211Z" fill="#C4ACD4"/>
<path d="M1088.73 373.765C1114.58 361.031 1139.13 350.171 1139.13 350.171C1139.69 349.422 1139.5 350.732 1139.88 350.171C1139.88 350.171 1141.19 360.095 1141.56 362.904C1146.06 417.77 1121.7 475.258 1097.54 490.801L1088.73 373.765Z" fill="#81CCDA"/>
<path d="M1079.93 420.579C1079.74 418.707 1074.68 425.261 1067.75 429.006C1060.82 432.751 1054.82 432.189 1055.01 434.062C1055.2 435.934 1061.38 439.492 1068.31 435.747C1075.24 432.002 1080.12 422.452 1079.93 420.579Z" fill="white"/>
<path d="M1102.22 408.594C1102.04 406.722 1107.47 407.471 1113.65 404.287C1119.65 401.104 1124.33 395.112 1124.33 396.797C1124.52 398.483 1120.21 407.284 1114.03 410.654C1108.03 414.025 1102.41 410.467 1102.22 408.594Z" fill="white"/>
<path d="M1116.27 454.66C1116.46 457.656 1106.72 453.723 1095.1 460.652C1083.3 467.768 1074.12 483.684 1073.93 480.501C1073.75 477.318 1082.36 457.656 1094.35 450.727C1105.78 443.799 1115.9 451.476 1116.27 454.66Z" fill="white"/>
<path d="M1054.09 645.849C1054.09 645.849 1056.52 702.588 1047.72 704.273C1034.04 706.895 1028.24 669.818 1027.3 659.893C1026.36 649.969 1019.62 643.04 1013.62 638.359C1007.63 633.677 1002.2 618.884 1020.74 604.84L1054.09 645.849Z" fill="#C4ACD4"/>
<mask id="mask0" mask-type="alpha" maskUnits="userSpaceOnUse" x="994" y="485" width="71" height="179">
<path d="M1059.9 663.077L994.332 661.579L998.266 485.932L1064.02 487.43L1059.9 663.077Z" fill="url(#paint4_linear)"/>
</mask>
<g mask="url(#mask0)">
<path d="M1053.71 653.527C1054.65 638.171 1053.71 604.465 1055.02 596.413C1056.34 588.361 1052.78 501.661 1053.34 492.86C1053.9 484.059 1024.49 488.553 1016.99 490.051C1007.06 492.111 1005 499.227 1010.25 534.431C1015.5 569.635 1028.42 589.297 1023.74 598.286C1019.05 607.274 1016.43 614.952 1021.87 621.318C1028.23 628.809 1039.29 646.973 1042.29 653.152C1045.66 660.268 1052.59 670.567 1053.71 653.527Z" fill="white"/>
<path d="M1054.09 636.673C1054.09 631.243 1054.09 625.438 1054.09 620.007C1046.78 611.955 1036.48 602.405 1024.68 595.289C1024.49 596.413 1024.3 597.536 1023.74 598.473C1022.43 600.907 1021.49 603.154 1020.55 605.401C1036.1 615.139 1048.84 629.932 1054.09 636.673Z" fill="#C4ACD4"/>
<path d="M1055.4 588.549C1052.21 589.11 1037.98 591.732 1024.86 595.103C1024.68 596.413 1024.49 597.537 1023.93 598.473C1022.24 601.657 1020.93 604.653 1019.99 607.462C1031.61 604.091 1047.72 600.72 1054.65 599.597C1054.84 598.473 1054.84 597.35 1055.03 596.601C1055.21 595.29 1055.4 592.481 1055.4 588.549Z" fill="#C4ACD4"/>
<path d="M1055.41 582.931C1048.29 584.803 1039.29 585.178 1031.61 584.991C1028.62 584.991 1025.99 584.803 1023.56 584.616C1022.81 581.433 1021.68 578.062 1020.37 574.13C1020.37 573.942 1020.37 573.943 1020.18 573.755C1020.37 573.755 1020.56 573.755 1020.93 573.755C1032.17 574.879 1048.29 574.879 1055.22 571.695C1055.22 575.815 1055.41 579.56 1055.41 582.931Z" fill="#81CCDA"/>
</g>
<path opacity="0.68" d="M1030.1 527.69V501.474L1030.48 433.5L1180.73 795.28L1044.9 513.084L1030.1 527.69Z" fill="url(#paint5_linear)"/>
<path d="M756.771 523.383L652.047 577.313V467.58L756.771 412.527V523.383Z" fill="#C4ACD4"/>
<path d="M550.877 525.255L652.042 577.313V467.58L550.877 414.587V525.255Z" fill="#36A9E1"/>
<path d="M790.118 170.404C768.387 186.882 746.655 186.882 724.923 170.404L729.607 155.049L733.166 143.251L734.665 138.57L737.1 130.705L741.035 117.784L741.222 117.41L757.521 64.6035L773.82 117.41L774.007 117.972L777.941 130.892L781.688 143.251L790.118 170.404Z" fill="url(#paint6_linear)"/>
<path d="M630.123 505.593C619.632 514.02 605.768 517.016 592.28 512.522C578.791 508.027 569.049 496.979 564.928 483.684C575.419 475.258 589.47 472.261 602.771 476.756C616.26 481.437 626.001 492.485 630.123 505.593Z" fill="white" stroke="#C4ACD4" stroke-width="1.7848" stroke-miterlimit="10"/>
<path d="M604.272 478.441L602.399 477.879L606.333 461.963L608.207 462.524L604.272 478.441Z" fill="white" stroke="white" stroke-width="1.7848" stroke-miterlimit="10"/>
<path d="M585.728 477.505L584.042 478.628L576.361 464.21L578.047 463.273L585.728 477.505Z" fill="white" stroke="white" stroke-width="1.7848" stroke-miterlimit="10"/>
<path d="M617.573 488.74L618.51 490.426L631.437 481.437L630.5 479.752L617.573 488.74Z" fill="white" stroke="white" stroke-width="1.7848" stroke-miterlimit="10"/>
<path d="M596.592 501.661C600.834 501.661 604.273 497.972 604.273 493.422C604.273 488.871 600.834 485.182 596.592 485.182C592.35 485.182 588.911 488.871 588.911 493.422C588.911 497.972 592.35 501.661 596.592 501.661Z" fill="#1D71B8"/>
<path d="M704.314 450.165L714.056 476.194L738.972 467.955L726.046 492.111L747.59 507.84L721.737 511.96L723.61 539.674L704.314 520.948L685.205 539.674L687.078 511.96L661.225 507.84L682.77 492.111L669.843 467.955L694.759 476.194L704.314 450.165Z" fill="#1D71B8"/>
<path d="M1251.36 292.495V418.894L1185.22 450.727C1204.89 436.683 1186.54 391.929 1229.62 370.956C1220.07 368.896 1175.86 345.864 1164.99 292.308L1167.99 333.505L1251.36 292.495Z" fill="#81CCDA"/>
<path d="M1196.09 325.452C1196.09 325.452 1179.98 337.999 1242.74 373.577C1242.74 373.577 1211.45 356.724 1196.09 325.452Z" fill="#C4ACD4"/>
<path d="M1213.7 325.452C1213.7 325.452 1208.08 343.616 1237.68 366.649C1247.61 375.637 1229.81 352.979 1213.7 325.452Z" fill="#C4ACD4"/>
<path d="M811.847 639.669C811.847 657.084 788.054 671.128 758.454 671.128C729.041 671.128 705.062 657.084 705.062 639.669C705.062 638.358 705.249 637.235 705.436 635.924C705.624 637.235 705.998 638.358 706.56 639.669C712.181 653.339 733.35 663.638 758.267 663.638C783.371 663.638 804.353 653.526 809.974 639.669C810.536 638.358 810.91 637.235 811.098 635.924C811.66 637.235 811.847 638.358 811.847 639.669Z" fill="url(#paint7_radial)"/>
<path d="M646.802 250.924L648.113 262.721L756.397 317.587L756.772 305.229L646.802 250.924Z" fill="url(#paint8_radial)"/>
<path d="M756.77 412.527V305.228L747.59 312.906L748.527 408.407L756.77 412.527Z" fill="url(#paint9_radial)"/>
<path d="M756.771 413.463L649.611 363.465L655.981 355.039L756.771 403.164V413.463Z" fill="url(#paint10_radial)"/>
<path d="M657.478 353.354L661.038 352.043V269.275L657.104 267.403L657.478 353.354Z" fill="white"/>
<path d="M655.984 355.039L748.531 399.044L748.344 389.12L661.042 350.17L655.984 355.039Z" fill="white"/>
<path d="M1011.56 318.524L1075.26 347.174L1011.75 370.581L945.992 345.489L1011.56 318.524Z" fill="#C4ACD4"/>
<path d="M1031.41 383.502L1031.23 317.775L1104.85 351.668L1031.41 383.502Z" fill="url(#paint11_linear)"/>
<path d="M1031.23 317.775L954.793 350.544L1031.42 383.502L1031.23 317.775Z" fill="url(#paint12_linear)"/>
<path d="M569.053 393.052C569.053 393.052 554.253 384.251 533.645 392.678L533.271 399.232C533.271 399.232 562.309 396.61 572.613 403.352C583.666 410.842 569.053 393.052 569.053 393.052Z" fill="url(#paint13_linear)"/>
<path d="M608.956 357.099L608.769 362.717C608.769 362.717 596.966 369.458 601.462 376.012C605.958 382.566 593.594 365.151 593.594 365.151L608.956 357.099Z" fill="url(#paint14_linear)"/>
<path d="M426.485 327.325L426.298 333.505C426.298 333.505 431.543 335.752 433.604 341.369C435.665 346.987 438.662 339.122 438.662 339.122C438.662 339.122 432.667 326.951 426.485 327.325Z" fill="url(#paint15_linear)"/>
<path d="M608.96 357.099L499.739 310.285C489.997 313.843 478.007 316.09 468.453 312.345L426.675 327.325C437.167 331.632 436.792 345.302 426.113 349.047L533.273 397.172C543.015 393.24 573.739 396.61 583.294 400.73L618.702 379.57C608.21 375.263 598.469 361.219 608.96 357.099Z" fill="#1D71B8"/>
<path d="M590.223 358.41C589.474 359.346 535.332 383.502 535.332 383.502L445.782 344.366L501.61 321.52L590.223 358.41Z" fill="#81CCDA"/>
<path d="M425.921 349.047V354.477L533.081 399.232L533.455 393.989L425.921 349.047Z" fill="url(#paint16_linear)"/>
<path d="M536.449 350.919L513.406 365.338C512.282 366.087 510.97 365.713 510.221 364.589L493.36 340.62C492.049 338.748 493.735 336.126 495.796 336.688L535.7 346.238C537.76 346.987 538.322 349.796 536.449 350.919Z" fill="#F3911C"/>
<path d="M591.714 359.346L536.26 385L539.071 386.686L594.524 360.47L591.714 359.346Z" fill="#F3911C"/>
<path d="M499.548 321.333H493.366L441.472 342.494L444.844 343.992L499.548 321.333Z" fill="#F3911C"/>
<path d="M534.207 290.997L539.078 293.806V258.227L534.207 255.792V290.997Z" fill="#81CCDA"/>
<path d="M535.712 245.306V306.352C535.712 307.288 535.712 308.037 535.9 308.974C536.087 309.723 536.274 310.472 536.462 311.033C537.586 314.029 536.462 311.033 541.333 313.468L649.617 363.278C649.617 358.597 651.303 289.124 647.743 286.503C647.181 285.941 641.374 284.256 640.812 283.881L639.688 283.319L625.824 277.14L623.014 275.829L615.52 272.458L612.148 270.96L599.596 265.343L597.723 264.406L588.356 260.099L585.733 258.789L585.358 258.601L577.49 255.044H577.303L563.626 248.864L562.877 248.49L556.695 245.681L554.072 244.557L544.705 240.25L542.269 239.127C542.082 239.127 542.082 238.939 541.895 238.939C541.52 238.752 541.145 238.752 540.771 238.752C537.773 238.939 535.712 241.374 535.712 245.306Z" fill="#F3911C"/>
<path d="M544.696 317.026C541.511 315.153 539.075 309.91 539.075 305.416V245.119C539.075 240.625 541.511 238.003 544.696 239.502L587.41 259.913L597.526 332.006L544.696 317.026Z" fill="#F3911C"/>
<path d="M595.663 234.82C595.663 249.8 605.217 266.653 617.395 272.458C629.947 278.451 640.438 270.586 640.438 254.482C640.438 238.565 629.947 221.337 617.395 216.281C605.217 211.413 595.663 219.839 595.663 234.82Z" fill="#F3911C"/>
<path d="M595.663 234.82C595.663 219.839 605.217 211.413 617.395 216.281V272.458C605.217 266.653 595.663 249.8 595.663 234.82Z" fill="#F3911C"/>
<path d="M587.227 231.262C587.227 252.047 600.341 275.454 617.202 283.881C634.999 292.682 649.987 281.634 649.987 258.976C649.987 236.318 634.999 211.974 617.202 205.233C600.528 198.492 587.227 210.289 587.227 231.262ZM638.559 249.426C634.812 250.362 629.941 246.804 627.88 241.374C625.82 235.943 626.944 230.7 630.691 229.576C634.437 228.453 639.308 232.011 641.369 237.629C643.617 243.059 642.306 248.302 638.559 249.426ZM627.693 256.541C629.941 252.796 634.625 253.358 638.559 257.852C642.493 262.346 643.805 268.9 641.556 272.646C639.308 276.391 634.437 275.642 630.691 271.148C626.944 266.653 625.632 260.099 627.693 256.541ZM610.832 265.717C610.832 261.223 613.83 258.789 617.389 260.474C621.136 262.159 624.134 267.402 624.134 271.897C624.134 276.578 621.136 278.825 617.389 277.14C613.642 275.454 610.832 270.211 610.832 265.717ZM610.27 217.03C610.27 212.162 613.455 209.353 617.389 211.038C621.323 212.536 624.508 217.967 624.508 222.835C624.508 227.891 621.323 230.513 617.389 228.827C613.455 227.142 610.27 221.899 610.27 217.03ZM607.085 232.385C605.025 235.943 600.716 235.569 597.344 231.636C593.971 227.704 592.847 221.712 594.721 218.154C596.594 214.596 600.903 214.97 604.275 218.716C607.835 222.648 608.959 228.827 607.085 232.385ZM597.531 239.876C600.716 238.939 605.025 242.123 606.898 247.366C608.771 252.422 607.647 257.29 604.275 258.227C601.09 259.163 596.782 255.792 594.908 250.736C593.222 245.681 594.159 240.999 597.531 239.876Z" fill="#F3911C"/>
<path d="M611.768 241.936C611.768 245.682 614.204 249.989 617.201 251.299C620.198 252.61 622.821 250.738 622.821 246.805C622.821 242.873 620.386 238.753 617.201 237.442C614.204 236.132 611.768 238.191 611.768 241.936Z" fill="#F3911C"/>
<path d="M617.391 210.851V204.859C600.53 198.305 587.416 210.289 587.416 231.075C587.416 251.86 600.53 275.268 617.391 283.694V277.14C613.831 275.455 610.834 270.212 610.834 265.717C610.834 261.223 613.831 258.789 617.391 260.474V228.828C613.456 227.143 610.272 221.899 610.272 217.031C610.272 212.162 613.456 209.353 617.391 210.851ZM597.532 239.876C600.717 238.94 605.026 242.123 606.899 247.366C608.773 252.422 607.649 257.291 604.277 258.227C601.092 259.163 596.783 255.793 594.909 250.737C593.223 245.681 594.16 241 597.532 239.876ZM607.087 232.386C605.026 235.944 600.717 235.569 597.345 231.637C593.973 227.704 592.849 221.712 594.722 218.154C596.596 214.596 600.904 214.971 604.277 218.716C607.836 222.648 608.96 228.828 607.087 232.386Z" fill="#F3911C"/>
<path d="M611.768 241.936C611.768 238.191 614.203 236.132 617.201 237.442V251.299C614.203 249.989 611.768 245.682 611.768 241.936Z" fill="#F3911C"/>
<path d="M541.331 211.039C541.331 224.896 549.387 240.063 559.691 244.932C570.369 249.988 579.174 242.31 579.174 227.704C579.174 213.098 570.369 197.556 559.691 193.436C549.387 189.13 541.331 197.182 541.331 211.039Z" fill="#F3911C"/>
<path d="M541.331 211.038C541.331 197.181 549.387 189.129 559.691 193.249V244.932C549.387 239.876 541.331 224.895 541.331 211.038Z" fill="#F3911C"/>
<path d="M534.216 207.855C534.216 227.142 545.456 248.115 559.694 255.231C574.682 262.534 587.234 252.047 587.234 231.074C587.234 210.289 574.682 188.567 559.694 182.762C545.456 177.332 534.216 188.567 534.216 207.855ZM577.679 223.022C574.494 224.146 570.56 220.963 568.687 215.907C566.813 211.038 567.937 205.982 571.122 204.858C574.307 203.735 578.241 206.731 580.115 211.787C581.988 217.03 580.864 221.899 577.679 223.022ZM568.499 229.951C570.373 226.58 574.494 226.768 577.679 230.7C580.864 234.632 581.988 240.812 580.115 244.182C578.241 247.553 574.12 247.179 570.935 243.246C567.75 239.314 566.626 233.322 568.499 229.951ZM554.074 238.939C554.074 234.82 556.509 232.573 559.694 233.883C562.879 235.381 565.314 239.876 565.314 244.182C565.314 248.489 562.692 250.736 559.694 249.238C556.697 247.74 554.074 243.059 554.074 238.939ZM553.699 194.185C553.699 189.691 556.322 187.069 559.694 188.38C563.066 189.691 565.689 194.559 565.689 199.054C565.689 203.548 562.879 206.169 559.694 204.858C556.322 203.36 553.699 198.679 553.699 194.185ZM550.889 208.416C549.203 211.787 545.456 211.412 542.646 207.855C539.836 204.297 538.899 198.866 540.398 195.496C542.084 192.125 545.643 192.312 548.641 195.87C551.638 199.428 552.575 205.046 550.889 208.416ZM542.833 215.719C545.643 214.783 549.203 217.592 550.702 222.273C552.388 226.955 551.451 231.449 548.641 232.385C545.831 233.322 542.271 230.325 540.773 225.831C539.274 221.15 540.023 216.656 542.833 215.719Z" fill="#F3911C"/>
<path d="M555.004 217.03C555.004 220.588 557.065 224.333 559.687 225.457C562.31 226.58 564.371 224.708 564.371 221.15C564.371 217.592 562.31 213.847 559.687 212.723C557.065 211.6 555.004 213.472 555.004 217.03Z" fill="#F3911C"/>
<path d="M559.686 188.38V182.95C545.448 177.519 534.207 188.755 534.207 208.042C534.207 227.33 545.448 248.302 559.686 255.418V249.426C556.688 247.928 554.066 243.246 554.066 239.127C554.066 235.007 556.501 232.76 559.686 234.071V204.859C556.314 203.548 553.691 198.679 553.691 194.185C553.691 189.691 556.314 187.069 559.686 188.38ZM542.825 215.72C545.635 214.783 549.195 217.592 550.693 222.274C552.38 226.955 551.443 231.449 548.633 232.386C545.822 233.322 542.263 230.326 540.764 225.832C539.266 221.15 540.015 216.656 542.825 215.72ZM550.881 208.417C549.195 211.787 545.448 211.413 542.638 207.855C539.828 204.297 538.891 198.867 540.39 195.496C542.076 192.125 545.635 192.313 548.633 195.87C551.63 199.428 552.567 205.046 550.881 208.417Z" fill="#F3911C"/>
<path d="M555.004 217.03C555.004 213.472 557.065 211.6 559.687 212.723V225.457C557.065 224.333 555.004 220.588 555.004 217.03Z" fill="#F3911C"/>
<path d="M534.206 255.792V273.394V290.997L520.53 296.053V265.904V235.943L534.206 255.792Z" fill="#81CCDA"/>
<path d="M621.126 302.981C621.126 304.479 622.063 306.165 623.374 306.914L627.309 308.973C628.62 309.535 629.557 308.973 629.557 307.288V302.232C629.557 300.734 628.62 299.049 627.309 298.3L623.374 296.24C622.25 295.678 621.126 296.427 621.126 297.925V302.981Z" fill="#81CCDA"/>
<path d="M607.264 295.865C607.264 297.363 608.201 299.049 609.325 299.61L613.259 301.67C614.383 302.232 615.32 301.483 615.32 300.172V295.303C615.32 293.805 614.383 292.12 613.259 291.558L609.325 289.686C608.201 289.124 607.264 289.873 607.264 291.371V295.865Z" fill="#81CCDA"/>
<path d="M593.969 288.937C593.969 290.435 594.905 291.933 596.029 292.682L599.776 294.555C600.9 295.117 601.837 294.367 601.837 293.057V288.188C601.837 286.69 600.9 285.005 599.776 284.443L596.029 282.57C594.905 282.009 593.969 282.758 593.969 284.068V288.937Z" fill="#81CCDA"/>
<path d="M546.757 301.296C546.757 303.73 548.256 306.539 549.942 307.475C551.628 308.412 553.127 307.288 553.127 304.854C553.127 302.419 551.628 299.611 549.942 298.674C548.256 297.738 546.757 298.862 546.757 301.296Z" fill="white"/>
<path d="M646.802 250.924L649.612 363.465L657.667 365.151L657.105 267.403L646.802 250.924Z" fill="url(#paint17_radial)"/>
<path d="M756.767 413.463L652.042 467.58L550.877 414.587L649.607 363.466L756.579 412.527L756.767 413.463Z" fill="#1D71B8"/>
<path d="M735.228 671.69C772.322 654.088 777.005 677.495 774.382 690.603C773.071 697.157 803.795 675.435 815.41 686.671C832.459 702.962 812.038 727.68 780.19 737.604C748.342 747.529 712.372 740.788 700.007 722.624C687.643 704.647 706.377 685.547 735.228 671.69Z" fill="#F3911C"/>
<path d="M757.439 683.881C757.991 680.828 755.055 677.742 750.881 676.987C746.707 676.232 742.875 678.095 742.322 681.148C741.77 684.201 744.706 687.288 748.88 688.042C753.054 688.797 756.886 686.934 757.439 683.881Z" fill="white"/>
<path d="M735.035 691.298C735.642 687.939 732.421 684.545 727.839 683.717C723.258 682.889 719.051 684.94 718.443 688.298C717.836 691.656 721.057 695.05 725.639 695.878C730.22 696.707 734.427 694.656 735.035 691.298Z" fill="#C4ACD4"/>
<path d="M724.046 709.041C724.654 705.683 721.35 702.274 716.666 701.428C711.983 700.581 707.694 702.617 707.086 705.975C706.478 709.333 709.782 712.742 714.466 713.589C719.149 714.436 723.438 712.4 724.046 709.041Z" fill="#81CCDA"/>
<path d="M736.431 727.109C737.038 723.751 733.734 720.342 729.051 719.495C724.368 718.649 720.079 720.685 719.471 724.043C718.863 727.401 722.167 730.81 726.85 731.657C731.534 732.503 735.823 730.468 736.431 727.109Z" fill="#36A9E1"/>
<path d="M761.374 729.676C761.982 726.317 758.679 722.908 753.996 722.06C749.312 721.212 745.023 723.247 744.414 726.606C743.806 729.964 747.109 733.373 751.792 734.221C756.476 735.069 760.765 733.034 761.374 729.676Z" fill="#1D71B8"/>
<path d="M864.118 635.924L863.931 636.112L758.457 687.982L654.856 634.614L652.796 635.924H652.983L759.768 580.684L863.931 635.924H864.118Z" fill="url(#paint18_linear)"/>
<path d="M758.454 667.383C787.942 667.383 811.847 653.298 811.847 635.924C811.847 618.55 787.942 604.465 758.454 604.465C728.966 604.465 705.062 618.55 705.062 635.924C705.062 653.298 728.966 667.383 758.454 667.383Z" fill="#1D71B8"/>
<path d="M758.456 649.781C772.528 649.781 783.935 643.074 783.935 634.8C783.935 626.527 772.528 619.82 758.456 619.82C744.385 619.82 732.978 626.527 732.978 634.8C732.978 643.074 744.385 649.781 758.456 649.781Z" fill="#81CCDA"/>
<path d="M758.449 638.733C763.105 638.733 766.879 636.47 766.879 633.677C766.879 630.885 763.105 628.621 758.449 628.621C753.793 628.621 750.018 630.885 750.018 633.677C750.018 636.47 753.793 638.733 758.449 638.733Z" fill="#36A9E1"/>
<path d="M733.346 631.617H707.867C707.867 631.617 710.677 620.382 720.607 615.513L737.842 626.561L733.346 631.617Z" fill="white"/>
<path d="M782.06 640.418L802.668 651.279C802.668 651.279 809.974 642.665 808.85 635.924L783.746 634.8L782.06 640.418Z" fill="white"/>
<path opacity="0.5" d="M864.302 743.035L759.016 795.28L758.454 687.981L864.115 635.924L864.302 743.035Z" fill="#C4ACD4"/>
<path opacity="0.5" d="M1261.66 37.8257L1050.52 256.729L1050.34 147.558L1261.66 37.8257Z" fill="url(#paint19_linear)"/>
<path opacity="0.47" d="M757.521 250.362C775.524 250.362 790.118 244.41 790.118 237.067C790.118 229.724 775.524 223.772 757.521 223.772C739.518 223.772 724.923 229.724 724.923 237.067C724.923 244.41 739.518 250.362 757.521 250.362Z" fill="black"/>
<path d="M866.93 469.64L756.772 522.821V412.527L866.93 360.282V469.64Z" fill="#1D71B8"/>
<path d="M852.13 461.962L771.573 500.912V420.391L852.13 382.191V461.962Z" fill="#36A9E1"/>
<path d="M837.703 454.659L785.997 479.752V427.881L837.703 403.351V454.659Z" fill="#81CCDA"/>
<path d="M825.153 448.667L798.55 461.588V434.997L825.153 422.264V448.667Z" fill="white"/>
<path d="M1139.7 349.983L1031.42 297.364L1148.88 242.31L1251.36 292.495L1139.7 349.983Z" fill="#36A9E1"/>
<path d="M1094.36 250.737V323.954L1196.09 279.762V210.29L1094.36 250.737Z" fill="url(#paint20_linear)"/>
<path d="M1196.09 210.29L1191.78 209.166L1090.99 248.677L1094.36 250.737L1196.09 210.29Z" fill="url(#paint21_linear)"/>
<path d="M1094.36 239.501L1180.16 169.093V180.515L1094.36 251.299V239.501Z" fill="black"/>
<path d="M1180.16 169.093H1176.98L1090.99 239.314L1094.36 239.501L1180.16 169.093Z" fill="url(#paint22_linear)"/>
<path d="M1094.36 239.501V323.954L1090.99 321.707V239.314L1094.36 239.501Z" fill="url(#paint23_linear)"/>
<path d="M1095.87 257.478C1095.87 257.291 1196.1 217.78 1196.1 217.78V228.453L1095.87 270.399V257.478Z" fill="white"/>
<path d="M1106.54 251.298L1112.72 248.677V270.399L1106.54 272.084V251.298Z" fill="black"/>
<path d="M1123.02 243.247L1129.21 240.438V262.16L1123.02 264.032V243.247Z" fill="black"/>
<path d="M1139.51 236.131L1145.69 233.509V255.231L1139.51 256.916V236.131Z" fill="black"/>
<path d="M1170.61 224.334L1176.8 221.712V243.434L1170.61 245.119V224.334Z" fill="black"/>
<path d="M1154.87 231.449L1161.06 228.828V250.549L1154.87 252.235V231.449Z" fill="black"/>
<path d="M1184.85 218.528L1196.09 215.719V237.441L1184.85 239.314V218.528Z" fill="black"/>
<path d="M1111.6 281.072L1180.17 254.107" stroke="white" stroke-width="1.5523" stroke-miterlimit="10" stroke-linecap="round"/>
<path d="M1206.58 247.741V247.926" stroke="white" stroke-width="1.5523" stroke-miterlimit="10" stroke-linecap="round"/>
<path d="M1111.78 292.682L1180.35 265.53" stroke="white" stroke-width="1.5523" stroke-miterlimit="10" stroke-linecap="round"/>
<path d="M1112.72 224.521L1119.65 218.716V230.513L1112.72 236.318V224.521Z" fill="white"/>
<path d="M1125.65 213.847L1132.58 208.042V219.839L1125.65 225.644V213.847Z" fill="white"/>
<path d="M1139.13 202.799L1146.07 197.181V208.791L1139.13 214.596V202.799Z" fill="white"/>
<path d="M1152.25 192.125L1159.18 186.32V198.118L1152.25 203.922V192.125Z" fill="white"/>
<path d="M1164.43 182.201L1171.36 176.396V188.193L1164.43 193.811V182.201Z" fill="white"/>
<path d="M1096.99 252.984H1094.55V275.08H1096.99V252.984Z" fill="black"/>
<path d="M307.333 155.798L306.583 156.172V164.973H309.206V154.861L307.333 155.798Z" fill="#F3911C"/>
<path d="M1388.11 267.028V223.397L1361.13 237.441V249.051H1358.51V238.752L1286.19 274.706V401.104L1358.51 365.712V339.309H1361.13V365.338L1387.36 352.792L1388.11 307.85C1379.68 304.667 1371.81 296.615 1371.81 287.065C1371.81 277.702 1379.68 270.211 1388.11 267.028ZM1361.13 252.797V264.219H1358.51V252.797H1361.13ZM1361.13 306.165H1358.51V294.555H1361.13V306.165ZM1361.13 321.333H1358.51V309.91H1361.13V321.333ZM1358.51 290.622V281.26H1361.13V290.622H1358.51ZM1361.13 277.514H1358.51V268.152H1361.13V277.514ZM1358.51 335.564V325.078H1361.13V335.564H1358.51Z" fill="url(#paint24_linear)"/>
<path d="M306.583 265.343L309.394 263.845V269.276H306.583V265.343Z" fill="white"/>
<path d="M309.394 154.861V164.973H306.583V156.172L307.333 155.798L309.394 154.861Z" fill="white"/>
<path d="M550.881 630.119L446.156 576.376L550.881 525.255L652.046 577.313L550.881 630.119Z" fill="url(#paint25_linear)"/>
<path d="M550.885 525.255L535.71 532.558L535.523 424.137L550.885 414.587V525.255Z" fill="#81CCDA"/>
<path d="M550.888 414.587L545.829 411.965L531.217 420.204L535.525 424.137L550.888 414.587Z" fill="url(#paint26_linear)"/>
<path d="M458.523 570.384L446.159 576.377V472.074L458.523 464.584V570.384Z" fill="#81CCDA"/>
<path d="M458.526 464.585L454.217 461.776L441.665 468.704L446.161 472.075L458.526 464.585Z" fill="url(#paint27_linear)"/>
<path d="M441.664 468.704L442.413 567.575L446.16 576.376V472.074L441.664 468.704Z" fill="url(#paint28_linear)"/>
<path d="M487.183 556.715L474.256 562.707V456.907L487.183 449.604V556.715Z" fill="#81CCDA"/>
<path d="M487.185 449.604L483.063 446.046L469.762 453.723L474.258 457.094L487.185 449.604Z" fill="url(#paint29_linear)"/>
<path d="M469.761 453.723L470.136 554.654L474.07 562.706L474.258 457.094L469.761 453.723Z" fill="url(#paint30_linear)"/>
<path d="M517.533 541.547L503.67 548.288V440.99L517.533 433.125V541.547Z" fill="#81CCDA"/>
<path d="M517.533 433.125L513.411 429.38L499.548 437.432L503.67 441.177L517.533 433.125Z" fill="url(#paint31_linear)"/>
<path d="M499.548 437.245V540.985L503.67 548.288V441.177L499.548 437.245Z" fill="url(#paint32_linear)"/>
<path d="M531.217 420.204V526.192L535.713 532.558L535.525 424.137L531.217 420.204Z" fill="url(#paint33_linear)"/>
<path d="M468.636 533.12L461.33 536.865V460.465L468.636 456.158V533.12Z" fill="black"/>
<path d="M468.638 456.158L467.139 454.847L459.833 459.154L461.332 460.465L468.638 456.158Z" fill="url(#paint34_linear)"/>
<path d="M459.835 459.153V534.243L461.334 536.865V460.464" fill="url(#paint35_linear)"/>
<path d="M498.041 518.702L490.172 522.635V444.549L498.041 439.867V518.702Z" fill="black"/>
<path d="M498.043 439.867L496.357 438.743L488.676 443.237L490.175 444.548L498.043 439.867Z" fill="url(#paint36_linear)"/>
<path d="M488.676 443.237V520.013L490.175 522.634V444.548" fill="url(#paint37_linear)"/>
<path d="M529.142 503.534L520.899 507.653V428.444L529.142 423.762V503.534Z" fill="black"/>
<path d="M529.146 423.762L527.46 422.452L519.217 427.133L520.903 428.444L529.146 423.762Z" fill="url(#paint38_linear)"/>
<path d="M519.218 427.133V504.844L520.904 507.653V428.443" fill="url(#paint39_linear)"/>
<path opacity="0.51" d="M226.217 576.002V467.768L0.28125 343.429L226.217 576.002Z" fill="url(#paint40_linear)"/>
<path d="M464.325 641.168C464.325 650.718 456.457 658.77 446.34 661.766V688.731L475.004 701.839V693.225H477.627V703.15L549.941 737.418L550.878 629.932L477.627 592.855V603.154H475.004V591.545L446.34 576.564V620.569C454.583 623.565 464.325 631.805 464.325 641.168ZM477.627 606.9V618.322H475.004V606.9H477.627ZM475.004 648.471H477.627V660.081H475.004V648.471ZM475.004 663.826H477.627V675.248H475.004V663.826ZM475.004 644.725V635.363H477.627V644.725H475.004ZM475.004 622.067H477.627V631.43H475.004V622.067ZM475.004 689.667V679.181H477.627V689.667H475.004Z" fill="url(#paint41_linear)"/>
<path d="M978.97 442.114L978.22 477.692L961.547 470.202L962.296 429.755L949.744 422.639L948.807 464.397L933.82 457.656L934.757 414.4L920.706 406.722V386.686C921.455 387.247 922.392 387.622 923.141 388.184L928.574 391.18C929.699 391.742 930.823 392.491 932.134 393.052L933.82 393.989C934.944 394.55 936.068 395.3 937.192 395.861L942.625 398.67L948.058 401.479C949.369 402.228 950.681 402.79 951.992 403.352L953.491 404.101C955.926 405.224 958.175 406.348 960.235 407.284L960.61 407.471C961.547 407.846 962.483 408.407 963.42 408.782C965.294 409.718 966.98 410.28 968.478 410.842H968.666C969.415 411.029 969.977 411.404 970.539 411.591C970.726 411.591 970.914 411.778 971.101 411.778C971.101 411.778 972.787 412.527 973.911 412.902V414.025C971.289 415.149 969.602 418.332 969.79 422.452C969.79 424.512 970.352 426.759 971.101 429.193L971.476 430.129L971.851 431.066C971.851 431.066 972.038 431.253 972.225 431.627L972.787 432.564C972.975 433.125 973.349 433.687 973.724 434.436C974.099 434.998 974.473 435.56 974.848 436.309C975.597 438.556 977.283 440.428 978.97 442.114Z" fill="white"/>
<path d="M1002.94 438.556C1002.19 442.114 1000.13 444.922 997.135 446.046C995.636 446.608 993.95 446.795 992.076 446.608C990.203 446.42 988.142 445.859 986.082 444.735L985.707 444.548C981.96 442.488 978.4 439.117 975.965 435.185C975.59 434.623 975.403 434.249 975.028 433.687C974.654 433.125 974.466 432.563 974.279 432.189L973.904 431.253C973.717 431.065 973.717 430.878 973.717 430.878L973.342 429.942L973.155 429.193C972.406 427.133 972.031 425.448 972.031 423.575C972.031 420.204 973.342 417.583 975.59 416.647C977.276 415.898 979.525 416.085 981.773 417.208C982.335 417.396 982.897 417.77 983.271 418.145C985.707 419.83 987.768 422.452 988.517 424.886C989.266 427.133 989.266 428.631 989.079 429.38V430.691L986.456 429.193L985.145 428.444V426.946C985.145 426.384 985.145 425.635 984.77 424.699C984.395 423.95 983.833 423.013 982.709 422.264C982.522 422.264 982.335 422.077 982.335 422.077C981.211 421.515 980.087 421.328 979.15 421.89C978.026 422.452 977.464 423.95 977.651 425.822C977.651 426.758 978.026 427.882 978.4 429.006L978.588 429.38C978.588 429.38 978.962 430.129 978.962 430.316L979.337 430.878C979.525 431.065 979.712 431.44 979.899 431.627C980.087 431.814 980.274 432.189 980.461 432.376C981.773 434.249 983.646 435.934 985.332 436.87C985.52 437.058 985.894 437.245 986.082 437.245C987.018 437.619 988.142 437.994 988.892 437.994C989.828 437.994 990.765 437.807 991.514 437.245C993.013 436.309 994.137 434.623 994.325 432.563C994.512 431.44 994.325 430.316 994.137 429.193C993.95 428.444 993.95 428.069 993.763 427.508L993.575 426.758C993.388 426.384 993.388 426.197 993.201 425.822L992.639 424.511L992.076 423.575C991.889 423.201 991.515 422.639 991.327 422.077C990.578 420.954 990.016 420.017 989.266 419.081C987.955 417.396 986.456 416.085 984.395 414.961C983.271 414.212 981.96 413.463 980.461 412.714C980.087 412.527 979.525 412.34 979.15 412.152C977.838 411.591 976.34 410.842 974.841 410.28L970.907 408.595C970.719 408.595 970.719 408.595 970.532 408.407C969.97 408.22 969.221 407.846 968.471 407.471C967.16 406.909 965.474 406.347 963.6 405.411C962.664 404.849 961.54 404.475 960.416 403.913C958.355 402.977 956.107 402.041 953.859 400.917L952.172 400.168C950.861 399.606 949.55 399.044 948.426 398.295L942.993 395.487L937.747 392.678C936.623 392.116 935.499 391.554 934.375 390.805L932.689 389.869C931.565 389.307 930.441 388.558 929.317 387.996L924.071 385C923.134 384.438 922.198 383.877 921.448 383.502V372.828C922.385 373.39 923.322 373.765 924.446 374.327C925.382 374.701 926.319 375.263 927.256 375.825C929.129 376.761 931.003 377.697 933.251 378.821L943.555 383.877L954.421 389.12C956.669 390.243 958.917 391.18 960.978 392.116C962.102 392.678 963.226 393.052 964.162 393.614C966.036 394.55 967.722 395.299 969.221 395.861L970.532 396.423C970.719 396.423 970.907 396.423 970.907 396.61L972.031 397.172C972.78 397.546 973.53 397.921 973.904 398.108L975.403 398.857C976.902 399.606 978.4 400.355 979.899 401.104C981.96 402.228 984.208 403.539 986.831 405.411C989.079 407.096 992.451 409.905 995.636 413.838C997.135 415.898 998.446 417.77 999.196 419.268C999.758 420.017 1000.13 420.954 1000.51 421.703L1001.26 423.013L1001.82 424.324C1002.01 424.511 1002.01 424.886 1002.19 425.26L1002.76 426.946C1002.94 427.32 1002.94 427.695 1003.13 428.069L1003.32 428.631C1003.5 429.755 1003.88 430.691 1003.88 431.814C1003.32 434.811 1003.32 436.683 1002.94 438.556Z" fill="white"/>
<path d="M991.147 391.742L990.96 404.101L920.706 370.395V359.534L991.147 391.742Z" fill="white"/>
<path d="M901.593 340.995L902.53 341.369L901.593 341.744L898.596 340.433V339.684L901.593 340.995Z" fill="white"/>
<path d="M921.262 350.171H921.075V349.983L956.483 366.462L921.262 350.171Z" fill="white"/>
<path d="M997.142 385.375L996.955 392.678L920.706 357.661V350.171L997.142 385.375Z" fill="white"/>
<path d="M962.949 429.748C966.776 429.627 969.75 425.507 969.593 420.545C969.435 415.584 966.206 411.66 962.38 411.781C958.554 411.902 955.579 416.022 955.736 420.984C955.894 425.945 959.123 429.869 962.949 429.748Z" fill="white"/>
<path d="M508.54 643.602C513.196 643.602 516.971 639.829 516.971 635.175C516.971 630.521 513.196 626.749 508.54 626.749C503.884 626.749 500.11 630.521 500.11 635.175C500.11 639.829 503.884 643.602 508.54 643.602Z" fill="white"/>
<path d="M508.54 672.252C513.196 672.252 516.971 668.48 516.971 663.826C516.971 659.172 513.196 655.399 508.54 655.399C503.884 655.399 500.11 659.172 500.11 663.826C500.11 668.48 503.884 672.252 508.54 672.252Z" fill="white"/>
<path d="M508.54 700.902C513.196 700.902 516.971 697.129 516.971 692.476C516.971 687.822 513.196 684.049 508.54 684.049C503.884 684.049 500.11 687.822 500.11 692.476C500.11 697.129 503.884 700.902 508.54 700.902Z" fill="white"/>
<path opacity="0.7" d="M195.114 709.704L88.5164 651.654L194.927 596.039L304.71 650.718L195.114 709.704Z" fill="#F3911C"/>
<path d="M253.572 652.964C253.572 664.574 229.593 673.937 199.618 674.499C198.494 674.499 197.37 674.499 196.246 674.499C196.058 674.499 195.683 674.499 195.496 674.499C163.835 674.499 138.544 664.761 138.544 652.964C138.544 640.98 164.21 631.242 196.058 631.242C227.719 631.242 253.572 640.98 253.572 652.964Z" fill="black"/>
<path d="M199.437 649.968V674.499C198.313 674.499 197.189 674.499 196.065 674.499C195.877 674.499 195.503 674.499 195.315 674.499V649.968H199.437Z" fill="#81CCDA"/>
<path d="M235.216 645.661C225.474 652.215 209.737 656.335 193.063 655.773C192.314 655.773 191.377 655.773 190.628 655.586C177.514 654.649 166.461 650.904 159.529 645.661H235.216Z" fill="#81CCDA"/>
<path d="M253.578 652.964C253.578 653.9 253.39 654.837 253.203 655.773C250.768 648.283 238.403 642.103 221.167 638.92C213.674 637.609 205.243 636.86 196.251 636.86C192.129 636.86 188.195 637.047 184.261 637.422C160.468 639.294 142.296 646.785 139.111 655.96C138.737 655.024 138.737 654.088 138.737 653.151C138.737 642.665 158.22 634.051 184.261 631.991C188.195 631.617 192.129 631.43 196.251 631.43C205.243 631.43 213.674 632.179 221.167 633.489C240.276 636.86 253.578 644.35 253.578 652.964Z" fill="#1D71B8"/>
<path d="M279.426 151.865C432.485 170.404 413.563 269.088 413.563 269.088C413.563 269.088 358.672 186.508 431.923 201.863C503.113 216.656 428.738 282.571 547.513 198.68" stroke="#F3911C" stroke-width="2" stroke-miterlimit="10" stroke-linecap="round"/>
<path d="M265.93 328.823C269.137 328.823 271.738 326.224 271.738 323.018C271.738 319.812 269.137 317.213 265.93 317.213C262.722 317.213 260.122 319.812 260.122 323.018C260.122 326.224 262.722 328.823 265.93 328.823Z" fill="#F3911C"/>
<path d="M1167.99 597.911C1171.2 597.911 1173.8 595.312 1173.8 592.106C1173.8 588.9 1171.2 586.301 1167.99 586.301C1164.78 586.301 1162.18 588.9 1162.18 592.106C1162.18 595.312 1164.78 597.911 1167.99 597.911Z" fill="#F3911C"/>
<path d="M149.031 36.3281L155.213 58.9862L173.198 42.1331L166.079 64.6039L190.808 58.2372L172.449 74.3413L197.365 79.959L172.449 85.5767L190.808 101.868L166.079 95.5013L173.198 117.785L155.213 101.119L149.031 123.59L142.849 101.119L124.864 117.785L131.983 95.5013L107.254 101.868L125.8 85.5767L100.697 79.959L125.8 74.3413L107.254 58.2372L131.983 64.6039L124.864 42.1331L142.849 58.9862L149.031 36.3281Z" fill="#C4ACD4"/>
<path d="M1257.16 526.192C1260.37 526.192 1262.97 523.593 1262.97 520.387C1262.97 517.181 1260.37 514.582 1257.16 514.582C1253.96 514.582 1251.36 517.181 1251.36 520.387C1251.36 523.593 1253.96 526.192 1257.16 526.192Z" fill="#F3911C"/>
<path d="M1251.36 749.027C1254.56 749.027 1257.16 746.428 1257.16 743.222C1257.16 740.016 1254.56 737.417 1251.36 737.417C1248.15 737.417 1245.55 740.016 1245.55 743.222C1245.55 746.428 1248.15 749.027 1251.36 749.027Z" fill="#F3911C"/>
<path d="M312.393 482.561C309.771 492.86 302.277 501.849 291.411 505.968C280.732 510.088 269.117 508.403 260.125 502.598C262.748 492.298 270.429 483.31 281.107 479.19C291.786 475.071 303.401 476.569 312.393 482.561Z" fill="white" stroke="#81CCDA" stroke-width="1.4689" stroke-miterlimit="10"/>
<path d="M286.169 499.227C289.893 499.227 292.913 496.209 292.913 492.485C292.913 488.762 289.893 485.744 286.169 485.744C282.444 485.744 279.424 488.762 279.424 492.485C279.424 496.209 282.444 499.227 286.169 499.227Z" fill="#1D71B8" stroke="#81CCDA" stroke-miterlimit="10"/>
<path d="M119.062 202.425C122.269 202.425 124.869 199.826 124.869 196.62C124.869 193.414 122.269 190.815 119.062 190.815C115.854 190.815 113.254 193.414 113.254 196.62C113.254 199.826 115.854 202.425 119.062 202.425Z" fill="#F3911C"/>
<defs>
<linearGradient id="paint0_linear" x1="225.953" y1="576.466" x2="445.949" y2="576.466" gradientUnits="userSpaceOnUse">
<stop stop-color="white"/>
<stop offset="0.9964" stop-color="#1D71B8"/>
</linearGradient>
<linearGradient id="paint1_linear" x1="335.48" y1="735.665" x2="336.025" y2="630.702" gradientUnits="userSpaceOnUse">
<stop offset="0.00360349" stop-color="white"/>
<stop offset="0.0574196" stop-color="#E5F0FB"/>
<stop offset="0.1366" stop-color="#C3DDF5"/>
<stop offset="0.2215" stop-color="#A1CDEF"/>
<stop offset="0.3118" stop-color="#82C0EA"/>
<stop offset="0.4093" stop-color="#66B6E6"/>
<stop offset="0.5178" stop-color="#4EAFE3"/>
<stop offset="0.6458" stop-color="#3DABE1"/>
<stop offset="0.8423" stop-color="#36A9E1"/>
</linearGradient>
<linearGradient id="paint2_linear" x1="808.645" y1="185.027" x2="961.606" y2="273.379" gradientUnits="userSpaceOnUse">
<stop stop-color="white"/>
<stop offset="0.0907991" stop-color="#E6F4FB"/>
<stop offset="0.3298" stop-color="#A8DAF2"/>
<stop offset="0.5485" stop-color="#77C5EB"/>
<stop offset="0.7394" stop-color="#53B6E5"/>
<stop offset="0.8952" stop-color="#3EACE2"/>
<stop offset="0.9964" stop-color="#36A9E1"/>
</linearGradient>
<linearGradient id="paint3_linear" x1="646.817" y1="250.976" x2="866.813" y2="250.976" gradientUnits="userSpaceOnUse">
<stop stop-color="white"/>
<stop offset="1" stop-color="#C4ACD4"/>
</linearGradient>
<linearGradient id="paint4_linear" x1="1027.12" y1="662.307" x2="1031.16" y2="486.604" gradientUnits="userSpaceOnUse">
<stop offset="0.7849" stop-color="white"/>
<stop offset="0.7997" stop-color="#F8F8F8"/>
<stop offset="0.8216" stop-color="#E4E4E4"/>
<stop offset="0.8481" stop-color="#C3C3C3"/>
<stop offset="0.878" stop-color="#959595"/>
<stop offset="0.9109" stop-color="#5A5A5A"/>
<stop offset="0.9457" stop-color="#131314"/>
<stop offset="0.9535" stop-color="#020203"/>
</linearGradient>
<linearGradient id="paint5_linear" x1="1180.8" y1="614.436" x2="1030.16" y2="614.436" gradientUnits="userSpaceOnUse">
<stop stop-color="white" stop-opacity="0"/>
<stop offset="0.9964" stop-color="#C4ACD4"/>
</linearGradient>
<linearGradient id="paint6_linear" x1="792.046" y1="99.1749" x2="722.867" y2="168.385" gradientUnits="userSpaceOnUse">
<stop offset="0.00360349" stop-color="white"/>
<stop offset="0.1936" stop-color="#D2E6F8"/>
<stop offset="0.4113" stop-color="#9ECCEF"/>
<stop offset="0.5999" stop-color="#6FB9E7"/>
<stop offset="0.7499" stop-color="#49ADE3"/>
<stop offset="0.8423" stop-color="#36A9E1"/>
</linearGradient>
<radialGradient id="paint7_radial" cx="0" cy="0" r="1" gradientUnits="userSpaceOnUse" gradientTransform="translate(758.455 653.536) scale(39.6938 39.6756)">
<stop stop-color="#81CCDA"/>
<stop offset="0.1049" stop-color="#7CC8D9"/>
<stop offset="0.2342" stop-color="#70BDD6"/>
<stop offset="0.3763" stop-color="#5CABD1"/>
<stop offset="0.5276" stop-color="#4292C8"/>
<stop offset="0.6847" stop-color="#2073B9"/>
<stop offset="0.6937" stop-color="#1D71B8"/>
</radialGradient>
<radialGradient id="paint8_radial" cx="0" cy="0" r="1" gradientUnits="userSpaceOnUse" gradientTransform="translate(701.826 284.304) scale(45.4851 45.4643)">
<stop offset="0.00360349" stop-color="white"/>
<stop offset="0.0915188" stop-color="#FFFDFB"/>
<stop offset="0.1995" stop-color="#FFF6EE"/>
<stop offset="0.318" stop-color="#FEEBD7"/>
<stop offset="0.4441" stop-color="#FDDCB8"/>
<stop offset="0.5762" stop-color="#FBC78E"/>
<stop offset="0.7111" stop-color="#F8AE5A"/>
<stop offset="0.8387" stop-color="#F3911C"/>
</radialGradient>
<radialGradient id="paint9_radial" cx="0" cy="0" r="1" gradientUnits="userSpaceOnUse" gradientTransform="translate(752.237 358.915) scale(38.1141 38.0967)">
<stop offset="0.00360349" stop-color="white"/>
<stop offset="0.0915188" stop-color="#FFFDFB"/>
<stop offset="0.1995" stop-color="#FFF6EE"/>
<stop offset="0.318" stop-color="#FEEBD7"/>
<stop offset="0.4441" stop-color="#FDDCB8"/>
<stop offset="0.5762" stop-color="#FBC78E"/>
<stop offset="0.7111" stop-color="#F8AE5A"/>
<stop offset="0.8387" stop-color="#F3911C"/>
</radialGradient>
<radialGradient id="paint10_radial" cx="0" cy="0" r="1" gradientUnits="userSpaceOnUse" gradientTransform="translate(703.22 384.284) scale(43.1829 43.1631)">
<stop offset="0.00360349" stop-color="white"/>
<stop offset="0.0915188" stop-color="#FFFDFB"/>
<stop offset="0.1995" stop-color="#FFF6EE"/>
<stop offset="0.318" stop-color="#FEEBD7"/>
<stop offset="0.4441" stop-color="#FDDCB8"/>
<stop offset="0.5762" stop-color="#FBC78E"/>
<stop offset="0.7111" stop-color="#F8AE5A"/>
<stop offset="0.8387" stop-color="#F3911C"/>
</radialGradient>
<linearGradient id="paint11_linear" x1="1019.53" y1="362.726" x2="1088.37" y2="322.966" gradientUnits="userSpaceOnUse">
<stop offset="0.00360349" stop-color="white"/>
<stop offset="0.0569395" stop-color="#E8F5F8"/>
<stop offset="0.1385" stop-color="#C8E7EE"/>
<stop offset="0.22" stop-color="#ABDBE5"/>
<stop offset="0.3006" stop-color="#94D2DF"/>
<stop offset="0.3798" stop-color="#86CDDB"/>
<stop offset="0.4559" stop-color="#81CCDA"/>
</linearGradient>
<linearGradient id="paint12_linear" x1="1031.49" y1="350.613" x2="954.867" y2="350.613" gradientUnits="userSpaceOnUse">
<stop offset="0.00360349" stop-color="white"/>
<stop offset="0.1509" stop-color="#FBFDFE"/>
<stop offset="0.3316" stop-color="#EFF8FA"/>
<stop offset="0.5299" stop-color="#DAEEF4"/>
<stop offset="0.7407" stop-color="#BAE1EA"/>
<stop offset="0.9594" stop-color="#8BCFDD"/>
<stop offset="0.9964" stop-color="#81CCDA"/>
</linearGradient>
<linearGradient id="paint13_linear" x1="576.83" y1="397.461" x2="533.163" y2="396.47" gradientUnits="userSpaceOnUse">
<stop offset="0.00360349" stop-color="white"/>
<stop offset="0.0966258" stop-color="#FBFCFE"/>
<stop offset="0.2108" stop-color="#EEF1FA"/>
<stop offset="0.3361" stop-color="#D8DFF2"/>
<stop offset="0.4694" stop-color="#B9C7E7"/>
<stop offset="0.6091" stop-color="#8FA8D8"/>
<stop offset="0.7518" stop-color="#5586C5"/>
<stop offset="0.8423" stop-color="#1D71B8"/>
</linearGradient>
<linearGradient id="paint14_linear" x1="608.656" y1="367.262" x2="593.554" y2="366.92" gradientUnits="userSpaceOnUse">
<stop offset="0.00360349" stop-color="white"/>
<stop offset="0.0966258" stop-color="#FBFCFE"/>
<stop offset="0.2108" stop-color="#EEF1FA"/>
<stop offset="0.3361" stop-color="#D8DFF2"/>
<stop offset="0.4694" stop-color="#B9C7E7"/>
<stop offset="0.6091" stop-color="#8FA8D8"/>
<stop offset="0.7518" stop-color="#5586C5"/>
<stop offset="0.8423" stop-color="#1D71B8"/>
</linearGradient>
<linearGradient id="paint15_linear" x1="438.829" y1="335.529" x2="426.35" y2="335.246" gradientUnits="userSpaceOnUse">
<stop offset="0.00360349" stop-color="white"/>
<stop offset="0.0966258" stop-color="#FBFCFE"/>
<stop offset="0.2108" stop-color="#EEF1FA"/>
<stop offset="0.3361" stop-color="#D8DFF2"/>
<stop offset="0.4694" stop-color="#B9C7E7"/>
<stop offset="0.6091" stop-color="#8FA8D8"/>
<stop offset="0.7518" stop-color="#5586C5"/>
<stop offset="0.8423" stop-color="#1D71B8"/>
</linearGradient>
<linearGradient id="paint16_linear" x1="533.919" y1="375.418" x2="425.404" y2="372.956" gradientUnits="userSpaceOnUse">
<stop offset="0.00360349" stop-color="white"/>
<stop offset="0.0966258" stop-color="#FBFCFE"/>
<stop offset="0.2108" stop-color="#EEF1FA"/>
<stop offset="0.3361" stop-color="#D8DFF2"/>
<stop offset="0.4694" stop-color="#B9C7E7"/>
<stop offset="0.6091" stop-color="#8FA8D8"/>
<stop offset="0.7518" stop-color="#5586C5"/>
<stop offset="0.8423" stop-color="#1D71B8"/>
</linearGradient>
<radialGradient id="paint17_radial" cx="0" cy="0" r="1" gradientUnits="userSpaceOnUse" gradientTransform="translate(652.252 308.019) scale(40.5366 40.5179)">
<stop offset="0.00360349" stop-color="white"/>
<stop offset="0.0915188" stop-color="#FFFDFB"/>
<stop offset="0.1995" stop-color="#FFF6EE"/>
<stop offset="0.318" stop-color="#FEEBD7"/>
<stop offset="0.4441" stop-color="#FDDCB8"/>
<stop offset="0.5762" stop-color="#FBC78E"/>
<stop offset="0.7111" stop-color="#F8AE5A"/>
<stop offset="0.8387" stop-color="#F3911C"/>
</radialGradient>
<linearGradient id="paint18_linear" x1="652.822" y1="634.342" x2="864.094" y2="634.342" gradientUnits="userSpaceOnUse">
<stop offset="0.00360349" stop-color="white"/>
<stop offset="0.0915189" stop-color="#FFFDFB"/>
<stop offset="0.1995" stop-color="#FFF6EE"/>
<stop offset="0.318" stop-color="#FEEBD7"/>
<stop offset="0.4441" stop-color="#FDDCB8"/>
<stop offset="0.5762" stop-color="#FBC78E"/>
<stop offset="0.7111" stop-color="#F8AE5A"/>
<stop offset="0.8387" stop-color="#F3911C"/>
</linearGradient>
<linearGradient id="paint19_linear" x1="1261.66" y1="147.295" x2="1050.31" y2="147.295" gradientUnits="userSpaceOnUse">
<stop stop-color="white" stop-opacity="0"/>
<stop offset="1" stop-color="#F3911C"/>
</linearGradient>
<linearGradient id="paint20_linear" x1="1125.45" y1="232.817" x2="1163.42" y2="298.626" gradientUnits="userSpaceOnUse">
<stop offset="0.4829"/>
<stop offset="0.642" stop-color="#070707"/>
<stop offset="0.6993" stop-color="#1D1D1D"/>
<stop offset="0.7402" stop-color="#343535"/>
<stop offset="0.7733" stop-color="#434547"/>
<stop offset="0.8016" stop-color="#52585D"/>
<stop offset="0.8266" stop-color="#616C75"/>
<stop offset="0.8493" stop-color="#6B7F8F"/>
<stop offset="0.8702" stop-color="#6F91A9"/>
<stop offset="0.8896" stop-color="#669FC4"/>
<stop offset="0.9068" stop-color="#43A8DC"/>
<stop offset="0.9099" stop-color="#36A9E1"/>
</linearGradient>
<linearGradient id="paint21_linear" x1="1091" y1="229.93" x2="1196.09" y2="229.93" gradientUnits="userSpaceOnUse">
<stop stop-color="white"/>
<stop offset="1"/>
</linearGradient>
<linearGradient id="paint22_linear" x1="1091" y1="204.3" x2="1180.2" y2="204.3" gradientUnits="userSpaceOnUse">
<stop stop-color="white"/>
<stop offset="1"/>
</linearGradient>
<linearGradient id="paint23_linear" x1="1091" y1="281.61" x2="1094.36" y2="281.61" gradientUnits="userSpaceOnUse">
<stop stop-color="white"/>
<stop offset="1"/>
</linearGradient>
<linearGradient id="paint24_linear" x1="1286.13" y1="312.349" x2="1388.12" y2="312.349" gradientUnits="userSpaceOnUse">
<stop stop-color="white"/>
<stop offset="0.0907991" stop-color="#E6F4FB"/>
<stop offset="0.3298" stop-color="#A8DAF2"/>
<stop offset="0.5485" stop-color="#77C5EB"/>
<stop offset="0.7394" stop-color="#53B6E5"/>
<stop offset="0.8952" stop-color="#3EACE2"/>
<stop offset="0.9964" stop-color="#36A9E1"/>
</linearGradient>
<linearGradient id="paint25_linear" x1="446.198" y1="577.627" x2="651.975" y2="577.627" gradientUnits="userSpaceOnUse">
<stop stop-color="white"/>
<stop offset="1" stop-color="#C4ACD4"/>
</linearGradient>
<linearGradient id="paint26_linear" x1="531.175" y1="418.04" x2="550.879" y2="418.04" gradientUnits="userSpaceOnUse">
<stop stop-color="white"/>
<stop offset="1" stop-color="#81CCDA"/>
</linearGradient>
<linearGradient id="paint27_linear" x1="441.578" y1="466.93" x2="458.491" y2="466.93" gradientUnits="userSpaceOnUse">
<stop stop-color="white"/>
<stop offset="1" stop-color="#81CCDA"/>
</linearGradient>
<linearGradient id="paint28_linear" x1="441.578" y1="522.614" x2="446.202" y2="522.614" gradientUnits="userSpaceOnUse">
<stop stop-color="white"/>
<stop offset="1" stop-color="#81CCDA"/>
</linearGradient>
<linearGradient id="paint29_linear" x1="469.851" y1="451.618" x2="487.186" y2="451.618" gradientUnits="userSpaceOnUse">
<stop stop-color="white"/>
<stop offset="1" stop-color="#81CCDA"/>
</linearGradient>
<linearGradient id="paint30_linear" x1="469.851" y1="508.25" x2="474.228" y2="508.25" gradientUnits="userSpaceOnUse">
<stop stop-color="white"/>
<stop offset="1" stop-color="#81CCDA"/>
</linearGradient>
<linearGradient id="paint31_linear" x1="499.483" y1="435.287" x2="517.504" y2="435.287" gradientUnits="userSpaceOnUse">
<stop stop-color="white"/>
<stop offset="1" stop-color="#81CCDA"/>
</linearGradient>
<linearGradient id="paint32_linear" x1="499.64" y1="492.806" x2="503.714" y2="492.806" gradientUnits="userSpaceOnUse">
<stop stop-color="white"/>
<stop offset="1" stop-color="#81CCDA"/>
</linearGradient>
<linearGradient id="paint33_linear" x1="531.175" y1="476.467" x2="535.637" y2="476.467" gradientUnits="userSpaceOnUse">
<stop stop-color="white"/>
<stop offset="1" stop-color="#81CCDA"/>
</linearGradient>
<linearGradient id="paint34_linear" x1="459.889" y1="457.635" x2="468.713" y2="457.635" gradientUnits="userSpaceOnUse">
<stop stop-color="white"/>
<stop offset="0.0611795" stop-color="#CECECE"/>
<stop offset="0.1456" stop-color="#909090"/>
<stop offset="0.2228" stop-color="#5F5F5F"/>
<stop offset="0.2903" stop-color="#3B3B3B"/>
<stop offset="0.3453" stop-color="#262626"/>
<stop offset="0.3811" stop-color="#1E1E1E"/>
<stop offset="0.784" stop-color="#141414"/>
<stop offset="0.9964"/>
</linearGradient>
<linearGradient id="paint35_linear" x1="443.236" y1="487.952" x2="477.999" y2="508.03" gradientUnits="userSpaceOnUse">
<stop stop-color="white"/>
<stop offset="0.00842593" stop-color="#FCFCFC"/>
<stop offset="0.2273" stop-color="#B1B1B1"/>
<stop offset="0.4324" stop-color="#727272"/>
<stop offset="0.6175" stop-color="#414141"/>
<stop offset="0.7791" stop-color="#1D1D1D"/>
<stop offset="0.9108" stop-color="#080808"/>
<stop offset="0.9964"/>
</linearGradient>
<linearGradient id="paint36_linear" x1="488.696" y1="441.609" x2="498.056" y2="441.609" gradientUnits="userSpaceOnUse">
<stop stop-color="white"/>
<stop offset="0.0611795" stop-color="#CECECE"/>
<stop offset="0.1456" stop-color="#909090"/>
<stop offset="0.2228" stop-color="#5F5F5F"/>
<stop offset="0.2903" stop-color="#3B3B3B"/>
<stop offset="0.3453" stop-color="#262626"/>
<stop offset="0.3811" stop-color="#1E1E1E"/>
<stop offset="0.784" stop-color="#141414"/>
<stop offset="0.9964"/>
</linearGradient>
<linearGradient id="paint37_linear" x1="471.682" y1="472.656" x2="507.249" y2="493.201" gradientUnits="userSpaceOnUse">
<stop stop-color="white"/>
<stop offset="0.00842593" stop-color="#FCFCFC"/>
<stop offset="0.2273" stop-color="#B1B1B1"/>
<stop offset="0.4324" stop-color="#727272"/>
<stop offset="0.6175" stop-color="#414141"/>
<stop offset="0.7791" stop-color="#1D1D1D"/>
<stop offset="0.9108" stop-color="#080808"/>
<stop offset="0.9964"/>
</linearGradient>
<linearGradient id="paint38_linear" x1="519.244" y1="425.444" x2="529.191" y2="425.444" gradientUnits="userSpaceOnUse">
<stop stop-color="white"/>
<stop offset="0.0611795" stop-color="#CECECE"/>
<stop offset="0.1456" stop-color="#909090"/>
<stop offset="0.2228" stop-color="#5F5F5F"/>
<stop offset="0.2903" stop-color="#3B3B3B"/>
<stop offset="0.3453" stop-color="#262626"/>
<stop offset="0.3811" stop-color="#1E1E1E"/>
<stop offset="0.784" stop-color="#141414"/>
<stop offset="0.9964"/>
</linearGradient>
<linearGradient id="paint39_linear" x1="502.029" y1="456.946" x2="538.098" y2="477.78" gradientUnits="userSpaceOnUse">
<stop stop-color="white"/>
<stop offset="0.00842593" stop-color="#FCFCFC"/>
<stop offset="0.2273" stop-color="#B1B1B1"/>
<stop offset="0.4324" stop-color="#727272"/>
<stop offset="0.6175" stop-color="#414141"/>
<stop offset="0.7791" stop-color="#1D1D1D"/>
<stop offset="0.9108" stop-color="#080808"/>
<stop offset="0.9964"/>
</linearGradient>
<linearGradient id="paint40_linear" x1="0.277316" y1="459.712" x2="226.127" y2="459.712" gradientUnits="userSpaceOnUse">
<stop stop-color="white" stop-opacity="0"/>
<stop offset="0.9928" stop-color="#81CCDA"/>
</linearGradient>
<linearGradient id="paint41_linear" x1="550.92" y1="657.045" x2="446.195" y2="657.045" gradientUnits="userSpaceOnUse">
<stop stop-color="white"/>
<stop offset="0.0907991" stop-color="#E6F4FB"/>
<stop offset="0.3298" stop-color="#A8DAF2"/>
<stop offset="0.5485" stop-color="#77C5EB"/>
<stop offset="0.7394" stop-color="#53B6E5"/>
<stop offset="0.8952" stop-color="#3EACE2"/>
<stop offset="0.9964" stop-color="#36A9E1"/>
</linearGradient>
</defs>
</svg>
