<svg width="30" height="30" viewBox="0 0 30 30" fill="none" xmlns="http://www.w3.org/2000/svg">
<path fill-rule="evenodd" clip-rule="evenodd" d="M21.8182 0H8.18182C3.68182 0 0 3.68182 0 8.18182V21.8182C0 26.3182 3.68182 30 8.18182 30H21.8182C26.3182 30 30 26.3182 30 21.8182V8.18182C30 3.68182 26.3182 0 21.8182 0ZM27.2727 21.8182C27.2727 24.8182 24.8182 27.2727 21.8182 27.2727H8.18182C5.18182 27.2727 2.72727 24.8182 2.72727 21.8182V8.18182C2.72727 5.18182 5.18182 2.72727 8.18182 2.72727H21.8182C24.8182 2.72727 27.2727 5.18182 27.2727 8.18182V21.8182ZM14.0456 8.1818C14.7274 8.04544 15.4092 8.04544 16.091 8.1818C19.091 8.59089 21.4092 10.9091 21.6819 13.9091C21.9547 15.6818 21.5456 17.4545 20.4547 18.9545C19.3637 20.4545 17.7274 21.4091 15.9547 21.6818C15.6819 21.8182 15.2728 21.8182 15.0001 21.8182C11.7274 21.8182 8.86375 19.3636 8.31829 15.9545C7.77284 12.2727 10.3637 8.72726 14.0456 8.1818ZM18.4093 17.3182C17.7274 18.1364 16.7729 18.8182 15.682 18.9545C13.5002 19.2273 11.3183 17.7273 11.0456 15.5455C10.6365 13.3636 12.2729 11.1818 14.4547 10.9091H15.0002H15.5456C17.3183 11.1818 18.682 12.5455 18.9547 14.3182C19.2274 15.4091 18.9547 16.5 18.4093 17.3182ZM23.7781 7.13369C23.7507 7.06751 23.7273 7.01103 23.7273 6.95455C23.7273 6.81818 23.5909 6.68182 23.4545 6.54545C22.9091 6 22.0909 6 21.5455 6.54545C21.4091 6.68182 21.2727 6.81818 21.2727 6.95455C21.1364 7.09091 21.1364 7.36364 21.1364 7.5C21.1364 7.77273 21.2727 8.18182 21.5455 8.45455C21.8182 8.72727 22.2273 8.86364 22.5 8.86364C22.7727 8.86364 23.1818 8.72727 23.4545 8.45455C23.7273 8.18182 23.8636 7.90909 23.8636 7.5C23.8636 7.34024 23.8168 7.22727 23.7781 7.13369Z" fill="url(#paint0_linear)"/>
<defs>
<linearGradient id="paint0_linear" x1="27" y1="1.89726e-06" x2="5" y2="27" gradientUnits="userSpaceOnUse">
<stop stop-color="#7C4ABD"/>
<stop offset="0.482292" stop-color="#E34B5A"/>
<stop offset="1" stop-color="#FDD170"/>
</linearGradient>
</defs>
</svg>
