<svg width="82" height="79" viewBox="0 0 82 79" fill="none" xmlns="http://www.w3.org/2000/svg">
<path d="M65.1699 22.3347V25.9398H71.2086V45.5396H75.5967V25.9398H81.6353V22.3347H65.1699Z" fill="#1D71B8"/>
<path d="M65.9761 55.0288V58.4681H66.6202H71.6927V78.3166H75.8392V58.4681L81.5558 58.4267V55.0288H65.9761Z" fill="#1D71B8"/>
<path d="M27.8129 19.3927C27.2493 19.3927 26.6455 19.2684 26.1221 18.9783C24.1897 18.0253 23.4248 15.6219 24.3508 13.6329C28.5376 4.84817 34.4554 0 40.9772 0C47.4989 0 53.4168 4.84817 57.6036 13.6329C58.5295 15.6219 57.7646 17.9838 55.8323 18.9783C53.8999 19.9728 51.6052 19.1441 50.639 17.1551C47.8613 11.3124 44.3186 7.99741 40.9772 7.99741C37.6358 7.99741 34.0931 11.3538 31.3154 17.1551C30.5907 18.5639 29.2219 19.3927 27.8129 19.3927Z" fill="#1D71B8"/>
<path d="M5.66934 42.9292V24.9039H7.48093V22.3348H0.918945V24.9039H2.81105V42.9292H0.918945V45.4983H7.56145V42.9292H5.66934ZM13.7209 42.9292L11.0236 33.8958H9.09124V32.9842C9.09124 29.2134 10.46 25.857 12.5936 25.3597L11.7885 30.0836H14.4052L15.774 22.2105C15.4922 22.1276 14.9286 22.0862 14.6065 22.0862C9.65484 22.0862 6.63552 26.9758 6.63552 33.2743V34.9318H8.28608L11.4262 45.4983H15.935V42.9292H13.7209Z" fill="#1D71B8"/>
<path d="M31.5551 22.3347L27.167 34.0615L21.8127 22.3347H17.5454L25.2749 38.7853L24.9528 39.6141C24.6308 40.4428 24.2684 41.023 23.8659 41.3959C23.4633 41.7688 22.7789 41.9346 21.8127 41.9346H20.3635V45.5396H21.8127C23.5438 45.5396 24.8723 45.1253 25.7982 44.3379C26.7242 43.5506 27.6098 42.0175 28.4955 39.7798L35.2991 22.3347H31.5551Z" fill="#1D71B8"/>
<path d="M42.9491 22.3347H37.7156L30.4692 45.5396H34.0522L39.7285 26.2298H39.9701L45.7672 45.5396H50.1955L42.9491 22.3347Z" fill="#1D71B8"/>
<path d="M67.5461 34.1857C66.902 33.0255 66.0163 32.1967 64.9696 31.7824C63.9229 31.368 62.3529 31.1608 60.34 31.1608H56.7168V22.2932H52.8521V45.4981H61.1854C63.6814 45.4981 65.5735 44.7937 66.741 43.4263C67.9487 42.0588 68.5526 40.3185 68.5526 38.2466C68.5123 36.7548 68.1902 35.3874 67.5461 34.1857ZM60.8231 41.9345H56.6765V34.6001H60.8231C63.2788 34.6001 64.5268 35.8432 64.5268 38.288C64.5268 40.6914 63.319 41.9345 60.8231 41.9345Z" fill="#1D71B8"/>
<path d="M1.16016 55.1118V78.3167H4.86386V58.5097H12.1907V78.3167H15.8944V55.1118H1.16016Z" fill="#1D71B8"/>
<path d="M39.8889 75.706V57.6808H41.8212V55.1117H34.8164V57.6808H36.8293V75.706H34.8164V78.2751H41.8615V75.706H39.8889ZM48.4235 75.706L45.5652 66.6727H43.5121V65.7611C43.5121 61.9903 44.9613 58.6338 47.256 58.1366L46.4106 62.8604H49.1884L50.6779 54.9873C50.3961 54.9045 49.752 54.863 49.4299 54.863C44.1562 54.863 40.9758 59.7526 40.9758 66.0511V67.7086H42.7472L46.0885 78.2751H50.8389V75.706H48.4235Z" fill="#1D71B8"/>
<path d="M65.854 55.0287V58.468H66.6189V55.0287H65.854ZM56.6753 74.5872V68.0815H64.6463V64.7251H56.6753V58.4266H62.6737V54.9873H52.8105V78.1922H66.7397V74.5872H56.6753Z" fill="#1D71B8"/>
<path d="M33.1249 75.7062L28.8173 55.1118H21.7722V57.6809H23.4228L19.6788 75.7062H17.5049V78.2753H24.6305V75.7062H22.8592L23.6643 71.3138H28.777L29.5822 75.7062H27.9719V78.2753H35.2585V75.7062H33.1249ZM24.1072 68.7447L26.0798 58.0539H26.2005L28.2134 68.7447H24.1072Z" fill="#1D71B8"/>
</svg>
