<svg width="21" height="21" viewBox="0 0 21 21" fill="none" xmlns="http://www.w3.org/2000/svg">
<path fill-rule="evenodd" clip-rule="evenodd" d="M16.0137 11.7945C16.7808 12.0822 17.6438 12.274 18.5068 12.3699C19.9452 12.5616 21 13.8082 21 15.2466V18.1233C21 18.8904 20.6164 19.5616 20.137 20.137C19.6575 20.7123 18.8904 21 18.1233 21H17.8356C14.7671 20.7123 11.6986 19.6575 9.10959 17.9315C6.71233 16.3973 4.60274 14.2877 3.06849 11.8904C1.43836 9.30137 0.287671 6.23288 0 3.16438C0 2.39726 0.191781 1.63014 0.671233 1.05479C1.15068 0.479452 1.82192 0.0958904 2.58904 0H2.87671H5.75342C7.19178 0 8.43836 1.05479 8.63014 2.49315C8.72603 3.35616 8.91781 4.21918 9.20548 4.9863C9.58904 6.0411 9.30137 7.28767 8.53425 8.05479L7.86301 8.72603C9.0137 10.5479 10.5479 11.9863 12.274 13.137L12.9452 12.4658C13.8082 11.6986 14.9589 11.411 16.0137 11.7945ZM19.0823 18.1234V15.2467C19.0823 14.7672 18.6987 14.3836 18.3151 14.2878C17.3562 14.096 16.3973 13.9042 15.4384 13.5206C15.0549 13.3288 14.6713 13.4247 14.3836 13.7124L13.1371 14.959C12.8494 15.3425 12.3699 15.3425 11.9864 15.1508C9.39734 13.7124 7.28775 11.6028 5.8494 9.01378C5.65762 8.63022 5.75351 8.15077 6.04118 7.8631L7.28775 6.71241C7.47953 6.42474 7.57543 6.04118 7.47953 5.65762C7.09597 4.7946 6.8083 3.73981 6.71241 2.7809C6.61652 2.30145 6.23296 1.91789 5.75351 1.91789H2.87679C2.58912 1.91789 2.30145 2.10967 2.10967 2.30145C2.01378 2.49323 1.91789 2.68501 1.91789 2.97269C2.20556 5.75351 3.16447 8.43844 4.69871 10.8357C6.13707 13.0412 7.95899 14.959 10.1645 16.3015C12.5617 17.8357 15.2467 18.7946 18.0275 19.0823C18.411 19.0823 18.6028 18.9864 18.7946 18.7946C18.9864 18.6028 19.0823 18.411 19.0823 18.1234Z" fill="#C4ACD4"/>
</svg>
