<svg width="20" height="20" viewBox="0 0 20 20" fill="none" xmlns="http://www.w3.org/2000/svg">
<path d="M17.7446 1.94713C17.2216 1.49008 15.1051 0.0335776 10.3842 0.0141386C10.3842 0.0141386 4.8197 -0.3021 2.10922 2.05665C0.601731 3.48613 0.0702351 5.58364 0.0127355 8.18088C-0.044764 10.7781 -0.114763 15.6445 4.8317 16.9649H4.8357L4.8317 18.9804C4.8317 18.9804 4.7987 19.7969 5.36719 19.9609C6.05069 20.1638 6.45469 19.5432 7.10968 18.8752C7.46818 18.5082 7.96217 17.9691 8.33717 17.559C10.4421 17.7431 12.5647 17.5952 14.6186 17.1214C15.3021 16.9104 19.1686 16.442 19.7961 11.5742C20.4461 6.55133 19.4831 3.37993 17.7461 1.94666L17.7446 1.94713ZM18.3171 11.2077C17.7856 15.2695 14.6511 15.5274 14.0746 15.7033C12.3077 16.1114 10.485 16.259 8.67067 16.1409C8.67067 16.1409 6.52869 18.5897 5.86169 19.2265C5.64319 19.4337 5.40469 19.4161 5.40869 19.0037C5.40869 18.7344 5.42519 15.6564 5.42519 15.6564C1.23223 14.555 1.47922 10.4111 1.52522 8.24346C1.57122 6.07578 2.00322 4.29877 3.27971 3.10351C5.57369 1.13117 10.2982 1.42418 10.2982 1.42418C14.2891 1.43982 16.1981 2.58008 16.6451 2.96317C18.1156 4.15843 18.8651 7.01739 18.3176 11.2081L18.3171 11.2077ZM12.5916 8.05192C12.5949 8.11875 12.57 8.18407 12.5225 8.23351C12.4749 8.28295 12.4086 8.31245 12.3381 8.31553C12.2677 8.31861 12.1988 8.29502 12.1466 8.24994C12.0945 8.20486 12.0634 8.14198 12.0601 8.07515C12.0146 7.21604 11.5906 6.79787 10.7172 6.75093C10.6467 6.74728 10.5806 6.71724 10.5335 6.6674C10.4864 6.61756 10.4621 6.55202 10.4659 6.48519C10.4698 6.41835 10.5014 6.3557 10.554 6.31103C10.6066 6.26635 10.6757 6.24329 10.7462 6.24694C10.9957 6.23926 11.2441 6.28113 11.4756 6.36986C11.707 6.45859 11.9163 6.59223 12.0901 6.76219C12.2639 6.93215 12.3983 7.13468 12.4846 7.35679C12.571 7.57889 12.6075 7.81567 12.5916 8.05192ZM13.4276 8.49333C13.4686 6.83722 12.3776 5.5405 10.3057 5.39589C10.2366 5.38947 10.1729 5.35777 10.1282 5.30753C10.0834 5.25729 10.061 5.19247 10.0658 5.12684C10.0706 5.06122 10.1023 4.99996 10.154 4.95609C10.2056 4.91222 10.2733 4.88919 10.3427 4.8919C12.7316 5.05595 14.0041 6.61438 13.9591 8.50471C13.9575 8.57154 13.9279 8.63501 13.8769 8.68116C13.8259 8.7273 13.7576 8.75235 13.6871 8.75078C13.6166 8.7492 13.5497 8.72115 13.501 8.67278C13.4524 8.62441 13.426 8.55969 13.4276 8.49285V8.49333ZM15.3636 9.01486C15.3641 9.08169 15.3367 9.14599 15.2872 9.1936C15.2377 9.24122 15.1703 9.26825 15.0999 9.26875C15.0294 9.26926 14.9616 9.24319 14.9114 9.19629C14.8612 9.14938 14.8327 9.08549 14.8321 9.01865C14.8076 5.8373 12.5711 4.10296 9.85516 4.08352C9.78468 4.08352 9.71708 4.05697 9.66725 4.00972C9.61741 3.96246 9.58941 3.89836 9.58941 3.83153C9.58941 3.76469 9.61741 3.7006 9.66725 3.65334C9.71708 3.60608 9.78468 3.57953 9.85516 3.57953C12.8926 3.59945 15.3351 5.58744 15.3636 9.01676V9.01486ZM14.8981 12.8462V12.8538C14.4531 13.5958 13.6211 14.4184 12.7646 14.1543L12.7566 14.1425C11.2432 13.6145 9.82363 12.8704 8.54717 11.9359C7.89995 11.4492 7.31393 10.8935 6.80068 10.2798C6.32347 9.7088 5.89906 9.09983 5.53219 8.45966C5.09751 7.77247 4.73862 7.04464 4.4612 6.28771C4.1852 5.47554 5.0462 4.68661 5.83269 4.26464H5.84069C5.99593 4.17114 6.18198 4.13498 6.36349 4.16304C6.54499 4.1911 6.7093 4.28142 6.82518 4.41683C6.82518 4.41683 7.33568 4.99478 7.55418 5.28021C7.76018 5.54571 8.03617 5.97147 8.18017 6.20996C8.28795 6.3722 8.332 6.56527 8.30457 6.75525C8.27713 6.94522 8.17998 7.11996 8.03017 7.24876L7.53568 7.62379C7.4591 7.69406 7.39982 7.77949 7.36205 7.87398C7.32428 7.96847 7.30896 8.0697 7.31718 8.17045C7.31718 8.17045 8.05017 10.799 10.7892 11.4628C10.8954 11.4705 11.0022 11.456 11.1018 11.4202C11.2014 11.3844 11.2915 11.3282 11.3656 11.2556L11.7611 10.7867C11.897 10.6446 12.0812 10.5525 12.2816 10.5265C12.4819 10.5004 12.6855 10.5422 12.8566 10.6444C13.5329 11.0064 14.1655 11.4372 14.7431 11.9293C14.8846 12.0375 14.9789 12.1915 15.0078 12.3617C15.0367 12.5318 14.9982 12.7061 14.8996 12.851L14.8981 12.8462Z" fill="#949494"/>
</svg>
